<svg id="Camada_1" data-name="Camada 1" xmlns="http://www.w3.org/2000/svg" viewBox="0 0 1000 945.14"><defs><style>.cls-1{fill:#fff;}</style></defs><path class="cls-1" d="M275.21,117.58a6.75,6.75,0,0,0,6.75-6.75v-74a6.75,6.75,0,0,0-13.49,0v74.05A6.75,6.75,0,0,0,275.21,117.58Z"/><path class="cls-1" d="M59.32,254.62h74.05a6.75,6.75,0,0,0,0-13.5H59.32a6.75,6.75,0,1,0,0,13.5Z"/><path class="cls-1" d="M170.14,152.34a6.75,6.75,0,0,0,9.54-9.54L127.33,90.44a6.75,6.75,0,0,0-9.55,9.54Z"/><path class="cls-1" d="M325.71,127.76a6.75,6.75,0,0,0,8.84-3.6l28.7-68.26a6.75,6.75,0,0,0-12.45-5.23l-28.7,68.25A6.76,6.76,0,0,0,325.71,127.76Z"/><path class="cls-1" d="M141.33,295.21l-68.56,28a6.75,6.75,0,0,0,2.55,13,6.59,6.59,0,0,0,2.55-.51l68.56-28a6.75,6.75,0,1,0-5.1-12.5Z"/><path class="cls-1" d="M73.58,170.42l28.84,12.13a6.75,6.75,0,1,0,5.23-12.45L78.81,158a6.75,6.75,0,1,0-5.23,12.44Z"/><path class="cls-1" d="M147.07,186.68,140.73,184a6.75,6.75,0,1,0-5.23,12.44l6.34,2.67a6.69,6.69,0,0,0,2.61.53,6.75,6.75,0,0,0,2.62-13Z"/><path class="cls-1" d="M195.26,69.78a6.74,6.74,0,0,0,6.25,4.2,6.59,6.59,0,0,0,2.55-.51,6.74,6.74,0,0,0,3.69-8.79L199.9,45.43a6.75,6.75,0,1,0-12.5,5.1Z"/><path class="cls-1" d="M203.2,89.23l12.18,29.85A6.74,6.74,0,1,0,227.87,114L215.69,84.13a6.75,6.75,0,1,0-12.49,5.1Z"/><path class="cls-1" d="M106.11,480.41a119.37,119.37,0,0,0-13.49,20.43,5.62,5.62,0,0,0,10,5.19,108.14,108.14,0,0,1,12.23-18.5,5.62,5.62,0,1,0-8.7-7.12Z"/><path class="cls-1" d="M198,436.91a118.24,118.24,0,0,0-68.67,21.86,5.62,5.62,0,1,0,6.51,9.16,106.87,106.87,0,0,1,34.25-16.13A108.09,108.09,0,0,1,198,448.14a5.62,5.62,0,1,0,0-11.23Z"/><path class="cls-1" d="M371.45,513.15H321.77a28.21,28.21,0,0,0-28.19,28.19v28.57a28.21,28.21,0,0,0,28.19,28.19h49.68a28.22,28.22,0,0,0,28.19-28.19V541.34A28.22,28.22,0,0,0,371.45,513.15Zm14.69,56.76a14.72,14.72,0,0,1-14.69,14.7H321.77a14.72,14.72,0,0,1-14.69-14.7V541.34a14.71,14.71,0,0,1,14.69-14.69h49.68a14.71,14.71,0,0,1,14.69,14.69Z"/><path class="cls-1" d="M708,513.15H483.36a25.7,25.7,0,0,0-25.67,25.67v33.61a25.7,25.7,0,0,0,25.67,25.67,6.75,6.75,0,1,0,0-13.49,12.19,12.19,0,0,1-12.17-12.18V538.82a12.18,12.18,0,0,1,12.17-12.17H708a12.18,12.18,0,0,1,12.17,12.17v33.61A12.19,12.19,0,0,1,708,584.61H542a6.75,6.75,0,1,0,0,13.49H708a25.69,25.69,0,0,0,25.67-25.67V538.82A25.69,25.69,0,0,0,708,513.15Z"/><path class="cls-1" d="M371.45,640.56H321.77a28.22,28.22,0,0,0-28.19,28.19v28.58a28.22,28.22,0,0,0,28.19,28.19h49.68a28.23,28.23,0,0,0,28.19-28.19V668.75A28.23,28.23,0,0,0,371.45,640.56Zm14.69,56.77A14.71,14.71,0,0,1,371.45,712H321.77a14.71,14.71,0,0,1-14.69-14.69V668.75a14.71,14.71,0,0,1,14.69-14.69h49.68a14.71,14.71,0,0,1,14.69,14.69Z"/><path class="cls-1" d="M535.56,640.56H485.88a28.23,28.23,0,0,0-28.19,28.19v28.58a28.23,28.23,0,0,0,28.19,28.19h49.68a28.22,28.22,0,0,0,28.19-28.19V668.75A28.22,28.22,0,0,0,535.56,640.56Zm14.69,56.77A14.71,14.71,0,0,1,535.56,712H485.88a14.71,14.71,0,0,1-14.69-14.69V668.75a14.71,14.71,0,0,1,14.69-14.69h49.68a14.71,14.71,0,0,1,14.69,14.69Z"/><path class="cls-1" d="M371.45,768H321.77a28.22,28.22,0,0,0-28.19,28.19v28.58a28.22,28.22,0,0,0,28.19,28.19h49.68a28.23,28.23,0,0,0,28.19-28.19V796.16A28.23,28.23,0,0,0,371.45,768Zm14.69,56.77a14.71,14.71,0,0,1-14.69,14.69H321.77a14.71,14.71,0,0,1-14.69-14.69V796.16a14.71,14.71,0,0,1,14.69-14.69h49.68a14.71,14.71,0,0,1,14.69,14.69Z"/><path class="cls-1" d="M535.56,768H485.88a28.23,28.23,0,0,0-28.19,28.19v28.58a28.23,28.23,0,0,0,28.19,28.19h49.68a28.22,28.22,0,0,0,28.19-28.19V796.16A28.22,28.22,0,0,0,535.56,768Zm14.69,56.77a14.71,14.71,0,0,1-14.69,14.69H485.88a14.71,14.71,0,0,1-14.69-14.69V796.16a14.71,14.71,0,0,1,14.69-14.69h49.68a14.71,14.71,0,0,1,14.69,14.69Z"/><path class="cls-1" d="M699.51,317.32H392.89a6.75,6.75,0,0,0,0,13.5H699.51a27.66,27.66,0,0,1,27.63,27.63v89.26a27.66,27.66,0,0,1-27.63,27.63H327.1a27.66,27.66,0,0,1-27.63-27.63V358.45a27.66,27.66,0,0,1,27.63-27.63,6.75,6.75,0,0,0,0-13.5A41.18,41.18,0,0,0,286,358.45v89.26a41.18,41.18,0,0,0,41.13,41.13H699.51a41.18,41.18,0,0,0,41.13-41.13V358.45A41.18,41.18,0,0,0,699.51,317.32Z"/><path class="cls-1" d="M603.59,108.76a7.94,7.94,0,1,0,7.94,7.93A7.93,7.93,0,0,0,603.59,108.76Z"/><circle class="cls-1" cx="587.72" cy="100.82" r="7.94"/><path class="cls-1" d="M898.14,628.2a8.19,8.19,0,1,0-11.58,0A8.2,8.2,0,0,0,898.14,628.2Z"/><path class="cls-1" d="M691.15,640.56h-21a42.57,42.57,0,0,0-42.52,42.52,6.75,6.75,0,0,0,13.5,0,29.06,29.06,0,0,1,29-29h21a29,29,0,0,1,29,29V810.41a29,29,0,0,1-29,29h-21a29.06,29.06,0,0,1-29-29V746.74a6.75,6.75,0,0,0-13.5,0v63.67a42.58,42.58,0,0,0,42.52,42.52h21a42.57,42.57,0,0,0,42.51-42.52V683.08A42.56,42.56,0,0,0,691.15,640.56Z"/><path class="cls-1" d="M634.35,729.31a6.75,6.75,0,0,0,6.75-6.75V706.79a6.75,6.75,0,0,0-13.5,0v15.77A6.75,6.75,0,0,0,634.35,729.31Z"/><path class="cls-1" d="M352.14,330.82H368.5a6.75,6.75,0,0,0,0-13.5H352.14a6.75,6.75,0,0,0,0,13.5Z"/><path class="cls-1" d="M522.3,598.1a6.75,6.75,0,1,0,0-13.49H507.62a6.75,6.75,0,1,0,0,13.49Z"/><path class="cls-1" d="M836.06,478.33h32.83a47.74,47.74,0,0,0,47.68-47.69V386a139.86,139.86,0,0,0-48-267.58l-1.31-.07A47.9,47.9,0,0,1,827.19,93,176,176,0,0,0,671.9,0c-44.66,0-92.68,22.86-129.41,61.38a161.08,161.08,0,0,0-60.4-11.71C413.82,49.67,355.3,92,331.27,151.79a110.38,110.38,0,0,0-56.06-15.29,111.21,111.21,0,0,0-87.09,180.57C137.55,329.92,97,370.66,86,423.4c-49.13,7.86-86,51.05-86,101A102.52,102.52,0,0,0,88.69,625.74a5.79,5.79,0,0,0,.83.06l11.65,0a119.79,119.79,0,0,0,14.23,16.23l.43,41.67a47.74,47.74,0,0,0,47.68,47.68h32.84A2.63,2.63,0,0,1,199,734v44.7c0,22.64,11.95,40.18,33,48.8v15.08c0,.48.06.94.07,1.42v25c0,41.26,35.6,76.11,77.73,76.11H711.69c42.89,0,77.78-33.39,77.78-74.44V842.94c0-.11,0-.22,0-.33V811.69c26.89-6.05,44-25.55,44-52.32v-50l38.25.12h.18c26.89,0,51.71-18.36,61.82-45.73,10.21-27.64,3.42-57.88-17.29-77-14.75-13.64-34.49-19.27-55-15.87a90,90,0,0,0-28-42V480.94A2.62,2.62,0,0,1,836.06,478.33ZM232,812.57c-9.48-5.3-19.5-15.28-19.5-33.84V734a16.12,16.12,0,0,0-16.11-16.11H163.51a34.24,34.24,0,0,1-34.18-34.26l-.31-30a118.86,118.86,0,0,0,26,13.85l.05,1.44a23.25,23.25,0,0,0,23.22,23.22h27.42a6.73,6.73,0,0,0,1.75-.26h14.37a6.49,6.49,0,1,0,0-13h-9.38v-3.47H232ZM168.85,671A200.07,200.07,0,0,0,199,674.72v3.95H178.3A9.7,9.7,0,0,1,168.85,671ZM232,330.65V662H206c-20.28-.57-34-3.33-42-5.53-.09,0-.16-.1-.25-.13a105.51,105.51,0,0,1-37.12-21.81,6.43,6.43,0,0,0-1.26-.84,107.36,107.36,0,0,1-15.51-18,6.5,6.5,0,0,0-5.33-2.83l-14.57,0a89.52,89.52,0,0,1-77-88.45c0-43.95,32.74-81.93,76.16-88.34a11.12,11.12,0,0,0,3.47-1.12,89.63,89.63,0,0,1,29.1,3.94,4.58,4.58,0,1,0,2.72-8.74,98.91,98.91,0,0,0-25.59-4.34,126.37,126.37,0,0,1,117.5-99.88c1.95-.09,3.91-.14,5.87-.14,3.33,0,6.67.14,10,.4C232.1,327.65,232,329.13,232,330.65Zm-9.76-17.86a138.13,138.13,0,0,0-18.95,1.31A97.76,97.76,0,0,1,326.67,164.73a161.71,161.71,0,0,0-1.85,88.12H309.76A77.87,77.87,0,0,0,234,313.35C230.06,313,226.13,312.79,222.2,312.79ZM711.69,906.91H309.76a64.37,64.37,0,0,1-64.3-64.3v-512a64.37,64.37,0,0,1,64.3-64.3H331.4a7.37,7.37,0,0,0,3.09.76h377.2a63.61,63.61,0,0,1,63.54,63.54v58.48a6.46,6.46,0,0,0-.15,1.4L776,842.61A64.38,64.38,0,0,1,711.69,906.91Zm0-654.82H340.07a147.56,147.56,0,0,1-5.47-39.92c0-81.32,66.16-147.48,147.49-147.48A146.23,146.23,0,0,1,541,77a7.53,7.53,0,0,0,1.37.44l.43.1A7.52,7.52,0,0,0,550,75.31C584.38,37.55,629.94,15,671.9,15A161,161,0,0,1,814,100.09a63.23,63.23,0,0,0,18.87,21.54,132.91,132.91,0,0,0-38.12,13.52A6.19,6.19,0,0,0,800.58,146a121,121,0,0,1,44.68-13.79q4.72-.5,9.45-.63a65.34,65.34,0,0,0,11.86,1.72l1.12.06a124.87,124.87,0,0,1,117,116.38h0A124.83,124.83,0,0,1,870,382.59a120.24,120.24,0,0,1-17.59.17H790.24v-52.1A78.64,78.64,0,0,0,711.69,252.09ZM863.83,398v17.91a9.73,9.73,0,0,1-9.72,9.72H833.44V397.76h18.29c2.76.16,5.53.27,8.34.27C861.27,398,862.55,398,863.83,398ZM820,759.37c0,22-14.08,33.63-30.46,38.31V709.49l30.46.09Zm27.38-189.46a77.4,77.4,0,0,0-37.16-5.79A6.49,6.49,0,0,0,811.33,577a64.37,64.37,0,0,1,60.13,29.43,6.49,6.49,0,1,0,10.92-7,77.65,77.65,0,0,0-14-16.36c14.78-1.28,28.48,3.17,39.25,13.12,16.84,15.59,22.31,40.32,13.93,63-8.11,22-28.52,37.26-49.68,37.26h-.13l-43.24-.13a6.88,6.88,0,0,0-1.77-.26L789.49,696V522.15A76.09,76.09,0,0,1,822.55,537a7.18,7.18,0,0,0,1.26.72A77.13,77.13,0,0,1,847.33,569.91Zm-27.38-89v38.12a89.51,89.51,0,0,0-30.46-10.56V397.76H820v28.09h-15a6.49,6.49,0,1,0,0,13h20a6.8,6.8,0,0,0,1.76.26h27.42a23.25,23.25,0,0,0,23.22-23.22v-19a139.09,139.09,0,0,0,25.75-5.6v39.41a34.23,34.23,0,0,1-34.19,34.19H836.06A16.13,16.13,0,0,0,820,480.94Z"/></svg>