<svg width="1000" height="946" viewBox="0 0 1000 946" fill="none" xmlns="http://www.w3.org/2000/svg">
<g clip-path="url(#clip0_289_99)">
<mask id="path-1-outside-1_289_99" maskUnits="userSpaceOnUse" x="263.469" y="25.3398" width="24" height="98" fill="black">
<rect fill="white" x="263.469" y="25.3398" width="24" height="98"/>
<path d="M275.209 117.58C276.999 117.58 278.716 116.869 279.982 115.603C281.248 114.337 281.959 112.62 281.959 110.83V36.8301C281.892 35.0861 281.152 33.436 279.894 32.2259C278.636 31.0158 276.959 30.3398 275.214 30.3398C273.469 30.3398 271.791 31.0158 270.534 32.2259C269.276 33.436 268.536 35.0861 268.469 36.8301V110.88C268.482 112.66 269.198 114.362 270.46 115.617C271.722 116.872 273.429 117.577 275.209 117.58Z"/>
</mask>
<path d="M275.209 117.58C276.999 117.58 278.716 116.869 279.982 115.603C281.248 114.337 281.959 112.62 281.959 110.83V36.8301C281.892 35.0861 281.152 33.436 279.894 32.2259C278.636 31.0158 276.959 30.3398 275.214 30.3398C273.469 30.3398 271.791 31.0158 270.534 32.2259C269.276 33.436 268.536 35.0861 268.469 36.8301V110.88C268.482 112.66 269.198 114.362 270.46 115.617C271.722 116.872 273.429 117.577 275.209 117.58Z" fill="white"/>
<path d="M275.209 117.58C276.999 117.58 278.716 116.869 279.982 115.603C281.248 114.337 281.959 112.62 281.959 110.83V36.8301C281.892 35.0861 281.152 33.436 279.894 32.2259C278.636 31.0158 276.959 30.3398 275.214 30.3398C273.469 30.3398 271.791 31.0158 270.534 32.2259C269.276 33.436 268.536 35.0861 268.469 36.8301V110.88C268.482 112.66 269.198 114.362 270.46 115.617C271.722 116.872 273.429 117.577 275.209 117.58Z" stroke="white" stroke-width="10" mask="url(#path-1-outside-1_289_99)"/>
<mask id="path-2-outside-2_289_99" maskUnits="userSpaceOnUse" x="47.5703" y="236.12" width="98" height="24" fill="black">
<rect fill="white" x="47.5703" y="236.12" width="98" height="24"/>
<path d="M59.3203 254.62H133.37C135.161 254.62 136.877 253.909 138.143 252.643C139.409 251.377 140.12 249.66 140.12 247.87C140.12 246.08 139.409 244.363 138.143 243.097C136.877 241.831 135.161 241.12 133.37 241.12H59.3203C57.5301 241.12 55.8132 241.831 54.5473 243.097C53.2815 244.363 52.5703 246.08 52.5703 247.87C52.5703 249.66 53.2815 251.377 54.5473 252.643C55.8132 253.909 57.5301 254.62 59.3203 254.62Z"/>
</mask>
<path d="M59.3203 254.62H133.37C135.161 254.62 136.877 253.909 138.143 252.643C139.409 251.377 140.12 249.66 140.12 247.87C140.12 246.08 139.409 244.363 138.143 243.097C136.877 241.831 135.161 241.12 133.37 241.12H59.3203C57.5301 241.12 55.8132 241.831 54.5473 243.097C53.2815 244.363 52.5703 246.08 52.5703 247.87C52.5703 249.66 53.2815 251.377 54.5473 252.643C55.8132 253.909 57.5301 254.62 59.3203 254.62Z" fill="white"/>
<path d="M59.3203 254.62H133.37C135.161 254.62 136.877 253.909 138.143 252.643C139.409 251.377 140.12 249.66 140.12 247.87C140.12 246.08 139.409 244.363 138.143 243.097C136.877 241.831 135.161 241.12 133.37 241.12H59.3203C57.5301 241.12 55.8132 241.831 54.5473 243.097C53.2815 244.363 52.5703 246.08 52.5703 247.87C52.5703 249.66 53.2815 251.377 54.5473 252.643C55.8132 253.909 57.5301 254.62 59.3203 254.62Z" stroke="white" stroke-width="10" mask="url(#path-2-outside-2_289_99)"/>
<mask id="path-3-outside-3_289_99" maskUnits="userSpaceOnUse" x="110.875" y="83.5273" width="76" height="76" fill="black">
<rect fill="white" x="110.875" y="83.5273" width="76" height="76"/>
<path d="M170.143 152.34C171.423 153.533 173.115 154.182 174.864 154.151C176.612 154.12 178.281 153.412 179.518 152.175C180.754 150.938 181.463 149.27 181.494 147.521C181.524 145.772 180.875 144.08 179.683 142.8L127.333 90.4403C126.062 89.2031 124.355 88.516 122.581 88.5275C120.807 88.539 119.109 89.2483 117.855 90.5019C116.6 91.7555 115.889 93.4527 115.875 95.2264C115.862 97.0002 116.547 98.7079 117.783 99.9803L170.143 152.34Z"/>
</mask>
<path d="M170.143 152.34C171.423 153.533 173.115 154.182 174.864 154.151C176.612 154.12 178.281 153.412 179.518 152.175C180.754 150.938 181.463 149.27 181.494 147.521C181.524 145.772 180.875 144.08 179.683 142.8L127.333 90.4403C126.062 89.2031 124.355 88.516 122.581 88.5275C120.807 88.539 119.109 89.2483 117.855 90.5019C116.6 91.7555 115.889 93.4527 115.875 95.2264C115.862 97.0002 116.547 98.7079 117.783 99.9803L170.143 152.34Z" fill="white"/>
<path d="M170.143 152.34C171.423 153.533 173.115 154.182 174.864 154.151C176.612 154.12 178.281 153.412 179.518 152.175C180.754 150.938 181.463 149.27 181.494 147.521C181.524 145.772 180.875 144.08 179.683 142.8L127.333 90.4403C126.062 89.2031 124.355 88.516 122.581 88.5275C120.807 88.539 119.109 89.2483 117.855 90.5019C116.6 91.7555 115.889 93.4527 115.875 95.2264C115.862 97.0002 116.547 98.7079 117.783 99.9803L170.143 152.34Z" stroke="white" stroke-width="10" mask="url(#path-3-outside-3_289_99)"/>
<mask id="path-4-outside-4_289_99" maskUnits="userSpaceOnUse" x="316.578" y="41.5332" width="53" height="92" fill="black">
<rect fill="white" x="316.578" y="41.5332" width="53" height="92"/>
<path d="M325.713 127.76C327.362 128.455 329.22 128.466 330.878 127.791C332.536 127.116 333.858 125.81 334.553 124.16L363.253 55.9002C363.946 54.2492 363.955 52.3903 363.278 50.7325C362.601 49.0747 361.294 47.7537 359.643 47.0602C357.992 46.3666 356.133 46.3573 354.475 47.0343C352.817 47.7113 351.496 49.0192 350.803 50.6702L322.103 118.92C321.411 120.571 321.403 122.429 322.08 124.087C322.757 125.744 324.063 127.065 325.713 127.76Z"/>
</mask>
<path d="M325.713 127.76C327.362 128.455 329.22 128.466 330.878 127.791C332.536 127.116 333.858 125.81 334.553 124.16L363.253 55.9002C363.946 54.2492 363.955 52.3903 363.278 50.7325C362.601 49.0747 361.294 47.7537 359.643 47.0602C357.992 46.3666 356.133 46.3573 354.475 47.0343C352.817 47.7113 351.496 49.0192 350.803 50.6702L322.103 118.92C321.411 120.571 321.403 122.429 322.08 124.087C322.757 125.744 324.063 127.065 325.713 127.76Z" fill="white"/>
<path d="M325.713 127.76C327.362 128.455 329.22 128.466 330.878 127.791C332.536 127.116 333.858 125.81 334.553 124.16L363.253 55.9002C363.946 54.2492 363.955 52.3903 363.278 50.7325C362.601 49.0747 361.294 47.7537 359.643 47.0602C357.992 46.3666 356.133 46.3573 354.475 47.0343C352.817 47.7113 351.496 49.0192 350.803 50.6702L322.103 118.92C321.411 120.571 321.403 122.429 322.08 124.087C322.757 125.744 324.063 127.065 325.713 127.76Z" stroke="white" stroke-width="10" mask="url(#path-4-outside-4_289_99)"/>
<mask id="path-5-outside-5_289_99" maskUnits="userSpaceOnUse" x="63.5703" y="289.7" width="93" height="52" fill="black">
<rect fill="white" x="63.5703" y="289.7" width="93" height="52"/>
<path d="M141.331 295.21L72.7708 323.21C71.3219 323.801 70.1234 324.877 69.3802 326.255C68.637 327.632 68.3953 329.224 68.6966 330.76C68.9978 332.295 69.8231 333.678 71.0314 334.673C72.2398 335.667 73.756 336.21 75.3208 336.21C76.1962 336.211 77.0631 336.038 77.8708 335.7L146.431 307.7C148.088 307.024 149.409 305.717 150.103 304.067C150.797 302.416 150.807 300.558 150.131 298.9C149.455 297.243 148.147 295.922 146.497 295.228C144.847 294.534 142.988 294.524 141.331 295.2V295.21Z"/>
</mask>
<path d="M141.331 295.21L72.7708 323.21C71.3219 323.801 70.1234 324.877 69.3802 326.255C68.637 327.632 68.3953 329.224 68.6966 330.76C68.9978 332.295 69.8231 333.678 71.0314 334.673C72.2398 335.667 73.756 336.21 75.3208 336.21C76.1962 336.211 77.0631 336.038 77.8708 335.7L146.431 307.7C148.088 307.024 149.409 305.717 150.103 304.067C150.797 302.416 150.807 300.558 150.131 298.9C149.455 297.243 148.147 295.922 146.497 295.228C144.847 294.534 142.988 294.524 141.331 295.2V295.21Z" fill="white"/>
<path d="M141.331 295.21L72.7708 323.21C71.3219 323.801 70.1234 324.877 69.3802 326.255C68.637 327.632 68.3953 329.224 68.6966 330.76C68.9978 332.295 69.8231 333.678 71.0314 334.673C72.2398 335.667 73.756 336.21 75.3208 336.21C76.1962 336.211 77.0631 336.038 77.8708 335.7L146.431 307.7C148.088 307.024 149.409 305.717 150.103 304.067C150.797 302.416 150.807 300.558 150.131 298.9C149.455 297.243 148.147 295.922 146.497 295.228C144.847 294.534 142.988 294.524 141.331 295.2V295.21Z" stroke="white" stroke-width="10" mask="url(#path-5-outside-5_289_99)"/>
<mask id="path-6-outside-6_289_99" maskUnits="userSpaceOnUse" x="64.2734" y="152.396" width="53" height="36" fill="black">
<rect fill="white" x="64.2734" y="152.396" width="53" height="36"/>
<path d="M73.583 170.42L102.423 182.55C103.241 182.893 104.118 183.072 105.004 183.077C105.891 183.081 106.77 182.911 107.591 182.576C108.412 182.24 109.158 181.747 109.788 181.123C110.419 180.499 110.92 179.757 111.263 178.94C111.606 178.122 111.785 177.245 111.79 176.359C111.794 175.472 111.624 174.593 111.289 173.772C110.954 172.951 110.46 172.205 109.836 171.574C109.212 170.944 108.471 170.443 107.653 170.1L78.813 158C77.9913 157.627 77.1032 157.423 76.2012 157.399C75.2991 157.375 74.4014 157.532 73.5613 157.862C72.7211 158.191 71.9554 158.685 71.3095 159.315C70.6637 159.945 70.1507 160.699 69.801 161.53C69.4513 162.362 69.2719 163.256 69.2734 164.158C69.275 165.061 69.4575 165.953 69.8101 166.784C70.1627 167.615 70.6782 168.366 71.3263 168.994C71.9743 169.622 72.7417 170.114 73.583 170.44V170.42Z"/>
</mask>
<path d="M73.583 170.42L102.423 182.55C103.241 182.893 104.118 183.072 105.004 183.077C105.891 183.081 106.77 182.911 107.591 182.576C108.412 182.24 109.158 181.747 109.788 181.123C110.419 180.499 110.92 179.757 111.263 178.94C111.606 178.122 111.785 177.245 111.79 176.359C111.794 175.472 111.624 174.593 111.289 173.772C110.954 172.951 110.46 172.205 109.836 171.574C109.212 170.944 108.471 170.443 107.653 170.1L78.813 158C77.9913 157.627 77.1032 157.423 76.2012 157.399C75.2991 157.375 74.4014 157.532 73.5613 157.862C72.7211 158.191 71.9554 158.685 71.3095 159.315C70.6637 159.945 70.1507 160.699 69.801 161.53C69.4513 162.362 69.2719 163.256 69.2734 164.158C69.275 165.061 69.4575 165.953 69.8101 166.784C70.1627 167.615 70.6782 168.366 71.3263 168.994C71.9743 169.622 72.7417 170.114 73.583 170.44V170.42Z" fill="white"/>
<path d="M73.583 170.42L102.423 182.55C103.241 182.893 104.118 183.072 105.004 183.077C105.891 183.081 106.77 182.911 107.591 182.576C108.412 182.24 109.158 181.747 109.788 181.123C110.419 180.499 110.92 179.757 111.263 178.94C111.606 178.122 111.785 177.245 111.79 176.359C111.794 175.472 111.624 174.593 111.289 173.772C110.954 172.951 110.46 172.205 109.836 171.574C109.212 170.944 108.471 170.443 107.653 170.1L78.813 158C77.9913 157.627 77.1032 157.423 76.2012 157.399C75.2991 157.375 74.4014 157.532 73.5613 157.862C72.7211 158.191 71.9554 158.685 71.3095 159.315C70.6637 159.945 70.1507 160.699 69.801 161.53C69.4513 162.362 69.2719 163.256 69.2734 164.158C69.275 165.061 69.4575 165.953 69.8101 166.784C70.1627 167.615 70.6782 168.366 71.3263 168.994C71.9743 169.622 72.7417 170.114 73.583 170.44V170.42Z" stroke="white" stroke-width="10" mask="url(#path-6-outside-6_289_99)"/>
<mask id="path-7-outside-7_289_99" maskUnits="userSpaceOnUse" x="126.188" y="178.396" width="31" height="27" fill="black">
<rect fill="white" x="126.188" y="178.396" width="31" height="27"/>
<path d="M147.067 186.68L140.727 184C139.905 183.627 139.017 183.423 138.115 183.399C137.213 183.375 136.316 183.532 135.475 183.862C134.635 184.191 133.869 184.685 133.224 185.315C132.578 185.945 132.065 186.699 131.715 187.53C131.365 188.362 131.186 189.256 131.188 190.158C131.189 191.061 131.372 191.953 131.724 192.784C132.077 193.615 132.592 194.366 133.24 194.994C133.888 195.622 134.656 196.114 135.497 196.44L141.837 199.11C142.663 199.46 143.55 199.64 144.447 199.64C146.018 199.657 147.546 199.125 148.766 198.136C149.987 197.147 150.825 195.764 151.135 194.224C151.446 192.684 151.209 191.084 150.467 189.699C149.724 188.315 148.522 187.233 147.067 186.64V186.68Z"/>
</mask>
<path d="M147.067 186.68L140.727 184C139.905 183.627 139.017 183.423 138.115 183.399C137.213 183.375 136.316 183.532 135.475 183.862C134.635 184.191 133.869 184.685 133.224 185.315C132.578 185.945 132.065 186.699 131.715 187.53C131.365 188.362 131.186 189.256 131.188 190.158C131.189 191.061 131.372 191.953 131.724 192.784C132.077 193.615 132.592 194.366 133.24 194.994C133.888 195.622 134.656 196.114 135.497 196.44L141.837 199.11C142.663 199.46 143.55 199.64 144.447 199.64C146.018 199.657 147.546 199.125 148.766 198.136C149.987 197.147 150.825 195.764 151.135 194.224C151.446 192.684 151.209 191.084 150.467 189.699C149.724 188.315 148.522 187.233 147.067 186.64V186.68Z" fill="white"/>
<path d="M147.067 186.68L140.727 184C139.905 183.627 139.017 183.423 138.115 183.399C137.213 183.375 136.316 183.532 135.475 183.862C134.635 184.191 133.869 184.685 133.224 185.315C132.578 185.945 132.065 186.699 131.715 187.53C131.365 188.362 131.186 189.256 131.188 190.158C131.189 191.061 131.372 191.953 131.724 192.784C132.077 193.615 132.592 194.366 133.24 194.994C133.888 195.622 134.656 196.114 135.497 196.44L141.837 199.11C142.663 199.46 143.55 199.64 144.447 199.64C146.018 199.657 147.546 199.125 148.766 198.136C149.987 197.147 150.825 195.764 151.135 194.224C151.446 192.684 151.209 191.084 150.467 189.699C149.724 188.315 148.522 187.233 147.067 186.64V186.68Z" stroke="white" stroke-width="10" mask="url(#path-7-outside-7_289_99)"/>
<mask id="path-8-outside-8_289_99" maskUnits="userSpaceOnUse" x="181.898" y="36.2295" width="32" height="43" fill="black">
<rect fill="white" x="181.898" y="36.2295" width="32" height="43"/>
<path d="M195.259 69.7797C195.764 71.0222 196.629 72.0857 197.742 72.8339C198.856 73.5821 200.167 73.9811 201.509 73.9797C202.384 73.9807 203.251 73.8074 204.059 73.4697C204.878 73.1349 205.624 72.642 206.253 72.019C206.882 71.3961 207.382 70.6553 207.724 69.839C208.067 69.0228 208.246 68.147 208.25 67.2618C208.254 66.3765 208.084 65.4991 207.749 64.6797L199.899 45.4297C199.564 44.6089 199.07 43.8621 198.447 43.232C197.824 42.6019 197.082 42.1007 196.265 41.7571C195.448 41.4136 194.571 41.2343 193.684 41.2296C192.798 41.2249 191.919 41.3948 191.099 41.7297C190.278 42.0645 189.531 42.5578 188.901 43.1813C188.271 43.8047 187.77 44.5462 187.426 45.3634C187.082 46.1805 186.903 47.0574 186.899 47.9438C186.894 48.8302 187.064 49.7089 187.399 50.5297L195.259 69.7797Z"/>
</mask>
<path d="M195.259 69.7797C195.764 71.0222 196.629 72.0857 197.742 72.8339C198.856 73.5821 200.167 73.9811 201.509 73.9797C202.384 73.9807 203.251 73.8074 204.059 73.4697C204.878 73.1349 205.624 72.642 206.253 72.019C206.882 71.3961 207.382 70.6553 207.724 69.839C208.067 69.0228 208.246 68.147 208.25 67.2618C208.254 66.3765 208.084 65.4991 207.749 64.6797L199.899 45.4297C199.564 44.6089 199.07 43.8621 198.447 43.232C197.824 42.6019 197.082 42.1007 196.265 41.7571C195.448 41.4136 194.571 41.2343 193.684 41.2296C192.798 41.2249 191.919 41.3948 191.099 41.7297C190.278 42.0645 189.531 42.5578 188.901 43.1813C188.271 43.8047 187.77 44.5462 187.426 45.3634C187.082 46.1805 186.903 47.0574 186.899 47.9438C186.894 48.8302 187.064 49.7089 187.399 50.5297L195.259 69.7797Z" fill="white"/>
<path d="M195.259 69.7797C195.764 71.0222 196.629 72.0857 197.742 72.8339C198.856 73.5821 200.167 73.9811 201.509 73.9797C202.384 73.9807 203.251 73.8074 204.059 73.4697C204.878 73.1349 205.624 72.642 206.253 72.019C206.882 71.3961 207.382 70.6553 207.724 69.839C208.067 69.0228 208.246 68.147 208.25 67.2618C208.254 66.3765 208.084 65.4991 207.749 64.6797L199.899 45.4297C199.564 44.6089 199.07 43.8621 198.447 43.232C197.824 42.6019 197.082 42.1007 196.265 41.7571C195.448 41.4136 194.571 41.2343 193.684 41.2296C192.798 41.2249 191.919 41.3948 191.099 41.7297C190.278 42.0645 189.531 42.5578 188.901 43.1813C188.271 43.8047 187.77 44.5462 187.426 45.3634C187.082 46.1805 186.903 47.0574 186.899 47.9438C186.894 48.8302 187.064 49.7089 187.399 50.5297L195.259 69.7797Z" stroke="white" stroke-width="10" mask="url(#path-8-outside-8_289_99)"/>
<mask id="path-9-outside-9_289_99" maskUnits="userSpaceOnUse" x="197.602" y="74.7031" width="36" height="54" fill="black">
<rect fill="white" x="197.602" y="74.7031" width="36" height="54"/>
<path d="M203.199 89.2299L215.379 119.08C215.713 119.9 216.205 120.646 216.827 121.276C217.449 121.906 218.189 122.408 219.004 122.752C219.82 123.096 220.696 123.276 221.581 123.281C222.466 123.287 223.344 123.118 224.164 122.785C224.984 122.451 225.731 121.959 226.361 121.337C226.991 120.715 227.492 119.975 227.836 119.16C228.18 118.344 228.36 117.468 228.366 116.583C228.371 115.698 228.203 114.82 227.869 114L215.689 84.1298C215.377 83.2782 214.896 82.4983 214.276 81.8365C213.656 81.1748 212.908 80.6449 212.079 80.2785C211.249 79.912 210.354 79.7166 209.447 79.7038C208.54 79.691 207.64 79.8611 206.8 80.204C205.96 80.5469 205.198 81.0555 204.559 81.6995C203.921 82.3434 203.418 83.1095 203.082 83.952C202.746 84.7945 202.583 85.696 202.603 86.6028C202.623 87.5097 202.826 88.4031 203.199 89.2299Z"/>
</mask>
<path d="M203.199 89.2299L215.379 119.08C215.713 119.9 216.205 120.646 216.827 121.276C217.449 121.906 218.189 122.408 219.004 122.752C219.82 123.096 220.696 123.276 221.581 123.281C222.466 123.287 223.344 123.118 224.164 122.785C224.984 122.451 225.731 121.959 226.361 121.337C226.991 120.715 227.492 119.975 227.836 119.16C228.18 118.344 228.36 117.468 228.366 116.583C228.371 115.698 228.203 114.82 227.869 114L215.689 84.1298C215.377 83.2782 214.896 82.4983 214.276 81.8365C213.656 81.1748 212.908 80.6449 212.079 80.2785C211.249 79.912 210.354 79.7166 209.447 79.7038C208.54 79.691 207.64 79.8611 206.8 80.204C205.96 80.5469 205.198 81.0555 204.559 81.6995C203.921 82.3434 203.418 83.1095 203.082 83.952C202.746 84.7945 202.583 85.696 202.603 86.6028C202.623 87.5097 202.826 88.4031 203.199 89.2299Z" fill="white"/>
<path d="M203.199 89.2299L215.379 119.08C215.713 119.9 216.205 120.646 216.827 121.276C217.449 121.906 218.189 122.408 219.004 122.752C219.82 123.096 220.696 123.276 221.581 123.281C222.466 123.287 223.344 123.118 224.164 122.785C224.984 122.451 225.731 121.959 226.361 121.337C226.991 120.715 227.492 119.975 227.836 119.16C228.18 118.344 228.36 117.468 228.366 116.583C228.371 115.698 228.203 114.82 227.869 114L215.689 84.1298C215.377 83.2782 214.896 82.4983 214.276 81.8365C213.656 81.1748 212.908 80.6449 212.079 80.2785C211.249 79.912 210.354 79.7166 209.447 79.7038C208.54 79.691 207.64 79.8611 206.8 80.204C205.96 80.5469 205.198 81.0555 204.559 81.6995C203.921 82.3434 203.418 83.1095 203.082 83.952C202.746 84.7945 202.583 85.696 202.603 86.6028C202.623 87.5097 202.826 88.4031 203.199 89.2299Z" stroke="white" stroke-width="10" mask="url(#path-9-outside-9_289_99)"/>
<mask id="path-10-outside-10_289_99" maskUnits="userSpaceOnUse" x="86.9844" y="473.349" width="35" height="41" fill="black">
<rect fill="white" x="86.9844" y="473.349" width="35" height="41"/>
<path d="M106.108 480.41C100.923 486.739 96.4023 493.585 92.6177 500.84C92.2769 501.496 92.0688 502.214 92.0052 502.951C91.9416 503.688 92.0239 504.43 92.2472 505.135C92.4705 505.841 92.8306 506.495 93.3068 507.061C93.783 507.627 94.3661 508.094 95.0227 508.435C96.3488 509.123 97.8939 509.256 99.3183 508.805C100.024 508.582 100.678 508.222 101.244 507.746C101.81 507.269 102.277 506.686 102.618 506.03C106.05 499.46 110.148 493.261 114.848 487.53C115.792 486.376 116.239 484.894 116.091 483.411C115.943 481.928 115.211 480.564 114.058 479.62C112.904 478.676 111.422 478.228 109.939 478.376C108.456 478.525 107.092 479.256 106.148 480.41H106.108Z"/>
</mask>
<path d="M106.108 480.41C100.923 486.739 96.4023 493.585 92.6177 500.84C92.2769 501.496 92.0688 502.214 92.0052 502.951C91.9416 503.688 92.0239 504.43 92.2472 505.135C92.4705 505.841 92.8306 506.495 93.3068 507.061C93.783 507.627 94.3661 508.094 95.0227 508.435C96.3488 509.123 97.8939 509.256 99.3183 508.805C100.024 508.582 100.678 508.222 101.244 507.746C101.81 507.269 102.277 506.686 102.618 506.03C106.05 499.46 110.148 493.261 114.848 487.53C115.792 486.376 116.239 484.894 116.091 483.411C115.943 481.928 115.211 480.564 114.058 479.62C112.904 478.676 111.422 478.228 109.939 478.376C108.456 478.525 107.092 479.256 106.148 480.41H106.108Z" fill="white"/>
<path d="M106.108 480.41C100.923 486.739 96.4023 493.585 92.6177 500.84C92.2769 501.496 92.0688 502.214 92.0052 502.951C91.9416 503.688 92.0239 504.43 92.2472 505.135C92.4705 505.841 92.8306 506.495 93.3068 507.061C93.783 507.627 94.3661 508.094 95.0227 508.435C96.3488 509.123 97.8939 509.256 99.3183 508.805C100.024 508.582 100.678 508.222 101.244 507.746C101.81 507.269 102.277 506.686 102.618 506.03C106.05 499.46 110.148 493.261 114.848 487.53C115.792 486.376 116.239 484.894 116.091 483.411C115.943 481.928 115.211 480.564 114.058 479.62C112.904 478.676 111.422 478.228 109.939 478.376C108.456 478.525 107.092 479.256 106.148 480.41H106.108Z" stroke="white" stroke-width="10" mask="url(#path-10-outside-10_289_99)"/>
<mask id="path-11-outside-11_289_99" maskUnits="userSpaceOnUse" x="121.875" y="431.905" width="87" height="43" fill="black">
<rect fill="white" x="121.875" y="431.905" width="87" height="43"/>
<path d="M198.003 436.91C173.396 436.874 149.391 444.516 129.333 458.77C128.715 459.191 128.187 459.731 127.78 460.358C127.373 460.985 127.096 461.687 126.963 462.423C126.831 463.159 126.847 463.914 127.011 464.643C127.174 465.373 127.481 466.063 127.914 466.672C128.347 467.281 128.897 467.798 129.533 468.192C130.168 468.586 130.876 468.85 131.614 468.967C132.352 469.084 133.107 469.053 133.833 468.875C134.559 468.697 135.242 468.376 135.843 467.93C146.209 460.558 157.807 455.096 170.093 451.8C179.197 449.369 188.58 448.138 198.003 448.14C198.76 448.172 199.516 448.051 200.225 447.783C200.934 447.515 201.582 447.107 202.129 446.582C202.676 446.058 203.112 445.428 203.409 444.731C203.707 444.033 203.86 443.283 203.86 442.525C203.86 441.767 203.707 441.017 203.409 440.32C203.112 439.623 202.676 438.993 202.129 438.468C201.582 437.944 200.934 437.535 200.225 437.268C199.516 437 198.76 436.878 198.003 436.91Z"/>
</mask>
<path d="M198.003 436.91C173.396 436.874 149.391 444.516 129.333 458.77C128.715 459.191 128.187 459.731 127.78 460.358C127.373 460.985 127.096 461.687 126.963 462.423C126.831 463.159 126.847 463.914 127.011 464.643C127.174 465.373 127.481 466.063 127.914 466.672C128.347 467.281 128.897 467.798 129.533 468.192C130.168 468.586 130.876 468.85 131.614 468.967C132.352 469.084 133.107 469.053 133.833 468.875C134.559 468.697 135.242 468.376 135.843 467.93C146.209 460.558 157.807 455.096 170.093 451.8C179.197 449.369 188.58 448.138 198.003 448.14C198.76 448.172 199.516 448.051 200.225 447.783C200.934 447.515 201.582 447.107 202.129 446.582C202.676 446.058 203.112 445.428 203.409 444.731C203.707 444.033 203.86 443.283 203.86 442.525C203.86 441.767 203.707 441.017 203.409 440.32C203.112 439.623 202.676 438.993 202.129 438.468C201.582 437.944 200.934 437.535 200.225 437.268C199.516 437 198.76 436.878 198.003 436.91Z" fill="white"/>
<path d="M198.003 436.91C173.396 436.874 149.391 444.516 129.333 458.77C128.715 459.191 128.187 459.731 127.78 460.358C127.373 460.985 127.096 461.687 126.963 462.423C126.831 463.159 126.847 463.914 127.011 464.643C127.174 465.373 127.481 466.063 127.914 466.672C128.347 467.281 128.897 467.798 129.533 468.192C130.168 468.586 130.876 468.85 131.614 468.967C132.352 469.084 133.107 469.053 133.833 468.875C134.559 468.697 135.242 468.376 135.843 467.93C146.209 460.558 157.807 455.096 170.093 451.8C179.197 449.369 188.58 448.138 198.003 448.14C198.76 448.172 199.516 448.051 200.225 447.783C200.934 447.515 201.582 447.107 202.129 446.582C202.676 446.058 203.112 445.428 203.409 444.731C203.707 444.033 203.86 443.283 203.86 442.525C203.86 441.767 203.707 441.017 203.409 440.32C203.112 439.623 202.676 438.993 202.129 438.468C201.582 437.944 200.934 437.535 200.225 437.268C199.516 437 198.76 436.878 198.003 436.91Z" stroke="white" stroke-width="10" mask="url(#path-11-outside-11_289_99)"/>
<mask id="path-12-outside-12_289_99" maskUnits="userSpaceOnUse" x="288.578" y="508.15" width="117" height="95" fill="black">
<rect fill="white" x="288.578" y="508.15" width="117" height="95"/>
<path d="M371.448 513.15H321.768C314.293 513.156 307.126 516.127 301.841 521.413C296.555 526.698 293.583 533.866 293.578 541.34V569.91C293.583 577.385 296.555 584.552 301.841 589.838C307.126 595.123 314.293 598.095 321.768 598.1H371.448C378.922 598.092 386.088 595.12 391.373 589.835C396.658 584.55 399.63 577.384 399.638 569.91V541.34C399.63 533.866 396.658 526.701 391.373 521.416C386.088 516.131 378.922 513.158 371.448 513.15ZM386.138 569.91C386.133 573.806 384.584 577.54 381.83 580.295C379.077 583.051 375.343 584.602 371.448 584.61H321.768C317.873 584.602 314.139 583.051 311.386 580.295C308.633 577.54 307.083 573.806 307.078 569.91V541.34C307.083 537.446 308.633 533.713 311.387 530.959C314.14 528.205 317.874 526.656 321.768 526.65H371.448C375.343 526.656 379.076 528.205 381.83 530.959C384.583 533.713 386.133 537.446 386.138 541.34V569.91Z"/>
</mask>
<path d="M371.448 513.15H321.768C314.293 513.156 307.126 516.127 301.841 521.413C296.555 526.698 293.583 533.866 293.578 541.34V569.91C293.583 577.385 296.555 584.552 301.841 589.838C307.126 595.123 314.293 598.095 321.768 598.1H371.448C378.922 598.092 386.088 595.12 391.373 589.835C396.658 584.55 399.63 577.384 399.638 569.91V541.34C399.63 533.866 396.658 526.701 391.373 521.416C386.088 516.131 378.922 513.158 371.448 513.15ZM386.138 569.91C386.133 573.806 384.584 577.54 381.83 580.295C379.077 583.051 375.343 584.602 371.448 584.61H321.768C317.873 584.602 314.139 583.051 311.386 580.295C308.633 577.54 307.083 573.806 307.078 569.91V541.34C307.083 537.446 308.633 533.713 311.387 530.959C314.14 528.205 317.874 526.656 321.768 526.65H371.448C375.343 526.656 379.076 528.205 381.83 530.959C384.583 533.713 386.133 537.446 386.138 541.34V569.91Z" fill="white"/>
<path d="M371.448 513.15H321.768C314.293 513.156 307.126 516.127 301.841 521.413C296.555 526.698 293.583 533.866 293.578 541.34V569.91C293.583 577.385 296.555 584.552 301.841 589.838C307.126 595.123 314.293 598.095 321.768 598.1H371.448C378.922 598.092 386.088 595.12 391.373 589.835C396.658 584.55 399.63 577.384 399.638 569.91V541.34C399.63 533.866 396.658 526.701 391.373 521.416C386.088 516.131 378.922 513.158 371.448 513.15ZM386.138 569.91C386.133 573.806 384.584 577.54 381.83 580.295C379.077 583.051 375.343 584.602 371.448 584.61H321.768C317.873 584.602 314.139 583.051 311.386 580.295C308.633 577.54 307.083 573.806 307.078 569.91V541.34C307.083 537.446 308.633 533.713 311.387 530.959C314.14 528.205 317.874 526.656 321.768 526.65H371.448C375.343 526.656 379.076 528.205 381.83 530.959C384.583 533.713 386.133 537.446 386.138 541.34V569.91Z" stroke="white" stroke-width="10" mask="url(#path-12-outside-12_289_99)"/>
<mask id="path-13-outside-13_289_99" maskUnits="userSpaceOnUse" x="452.688" y="508.15" width="286" height="95" fill="black">
<rect fill="white" x="452.688" y="508.15" width="286" height="95"/>
<path d="M707.997 513.15H483.357C476.552 513.158 470.027 515.865 465.215 520.678C460.403 525.49 457.695 532.015 457.688 538.82V572.43C457.695 579.236 460.403 585.761 465.215 590.573C470.027 595.385 476.552 598.092 483.357 598.1C484.265 598.135 485.17 597.987 486.019 597.664C486.868 597.34 487.643 596.849 488.297 596.219C488.952 595.59 489.473 594.834 489.828 593.998C490.184 593.163 490.367 592.264 490.367 591.355C490.367 590.447 490.184 589.548 489.828 588.712C489.473 587.877 488.952 587.121 488.297 586.491C487.643 585.862 486.868 585.37 486.019 585.047C485.17 584.724 484.265 584.575 483.357 584.61C480.13 584.605 477.036 583.32 474.754 581.036C472.473 578.753 471.19 575.658 471.188 572.43V538.82C471.19 535.594 472.473 532.5 474.755 530.218C477.037 527.936 480.131 526.653 483.357 526.65H707.997C711.224 526.653 714.318 527.936 716.6 530.218C718.882 532.5 720.165 535.594 720.167 538.82V572.43C720.165 575.658 718.882 578.753 716.601 581.036C714.319 583.32 711.225 584.605 707.997 584.61H541.997C541.09 584.575 540.185 584.724 539.336 585.047C538.487 585.37 537.712 585.862 537.057 586.491C536.403 587.121 535.882 587.877 535.527 588.712C535.171 589.548 534.988 590.447 534.988 591.355C534.988 592.264 535.171 593.163 535.527 593.998C535.882 594.834 536.403 595.59 537.057 596.219C537.712 596.849 538.487 597.34 539.336 597.664C540.185 597.987 541.09 598.135 541.997 598.1H707.997C714.804 598.095 721.33 595.389 726.143 590.576C730.956 585.763 733.662 579.237 733.667 572.43V538.82C733.662 532.014 730.956 525.488 726.143 520.675C721.33 515.862 714.804 513.156 707.997 513.15Z"/>
</mask>
<path d="M707.997 513.15H483.357C476.552 513.158 470.027 515.865 465.215 520.678C460.403 525.49 457.695 532.015 457.688 538.82V572.43C457.695 579.236 460.403 585.761 465.215 590.573C470.027 595.385 476.552 598.092 483.357 598.1C484.265 598.135 485.17 597.987 486.019 597.664C486.868 597.34 487.643 596.849 488.297 596.219C488.952 595.59 489.473 594.834 489.828 593.998C490.184 593.163 490.367 592.264 490.367 591.355C490.367 590.447 490.184 589.548 489.828 588.712C489.473 587.877 488.952 587.121 488.297 586.491C487.643 585.862 486.868 585.37 486.019 585.047C485.17 584.724 484.265 584.575 483.357 584.61C480.13 584.605 477.036 583.32 474.754 581.036C472.473 578.753 471.19 575.658 471.188 572.43V538.82C471.19 535.594 472.473 532.5 474.755 530.218C477.037 527.936 480.131 526.653 483.357 526.65H707.997C711.224 526.653 714.318 527.936 716.6 530.218C718.882 532.5 720.165 535.594 720.167 538.82V572.43C720.165 575.658 718.882 578.753 716.601 581.036C714.319 583.32 711.225 584.605 707.997 584.61H541.997C541.09 584.575 540.185 584.724 539.336 585.047C538.487 585.37 537.712 585.862 537.057 586.491C536.403 587.121 535.882 587.877 535.527 588.712C535.171 589.548 534.988 590.447 534.988 591.355C534.988 592.264 535.171 593.163 535.527 593.998C535.882 594.834 536.403 595.59 537.057 596.219C537.712 596.849 538.487 597.34 539.336 597.664C540.185 597.987 541.09 598.135 541.997 598.1H707.997C714.804 598.095 721.33 595.389 726.143 590.576C730.956 585.763 733.662 579.237 733.667 572.43V538.82C733.662 532.014 730.956 525.488 726.143 520.675C721.33 515.862 714.804 513.156 707.997 513.15Z" fill="white"/>
<path d="M707.997 513.15H483.357C476.552 513.158 470.027 515.865 465.215 520.678C460.403 525.49 457.695 532.015 457.688 538.82V572.43C457.695 579.236 460.403 585.761 465.215 590.573C470.027 595.385 476.552 598.092 483.357 598.1C484.265 598.135 485.17 597.987 486.019 597.664C486.868 597.34 487.643 596.849 488.297 596.219C488.952 595.59 489.473 594.834 489.828 593.998C490.184 593.163 490.367 592.264 490.367 591.355C490.367 590.447 490.184 589.548 489.828 588.712C489.473 587.877 488.952 587.121 488.297 586.491C487.643 585.862 486.868 585.37 486.019 585.047C485.17 584.724 484.265 584.575 483.357 584.61C480.13 584.605 477.036 583.32 474.754 581.036C472.473 578.753 471.19 575.658 471.188 572.43V538.82C471.19 535.594 472.473 532.5 474.755 530.218C477.037 527.936 480.131 526.653 483.357 526.65H707.997C711.224 526.653 714.318 527.936 716.6 530.218C718.882 532.5 720.165 535.594 720.167 538.82V572.43C720.165 575.658 718.882 578.753 716.601 581.036C714.319 583.32 711.225 584.605 707.997 584.61H541.997C541.09 584.575 540.185 584.724 539.336 585.047C538.487 585.37 537.712 585.862 537.057 586.491C536.403 587.121 535.882 587.877 535.527 588.712C535.171 589.548 534.988 590.447 534.988 591.355C534.988 592.264 535.171 593.163 535.527 593.998C535.882 594.834 536.403 595.59 537.057 596.219C537.712 596.849 538.487 597.34 539.336 597.664C540.185 597.987 541.09 598.135 541.997 598.1H707.997C714.804 598.095 721.33 595.389 726.143 590.576C730.956 585.763 733.662 579.237 733.667 572.43V538.82C733.662 532.014 730.956 525.488 726.143 520.675C721.33 515.862 714.804 513.156 707.997 513.15Z" stroke="white" stroke-width="10" mask="url(#path-13-outside-13_289_99)"/>
<mask id="path-14-outside-14_289_99" maskUnits="userSpaceOnUse" x="288.578" y="635.56" width="117" height="95" fill="black">
<rect fill="white" x="288.578" y="635.56" width="117" height="95"/>
<path d="M371.448 640.56H321.768C314.294 640.568 307.128 643.54 301.844 648.825C296.559 654.11 293.586 661.276 293.578 668.75V697.33C293.586 704.804 296.559 711.969 301.844 717.254C307.128 722.539 314.294 725.512 321.768 725.52H371.448C378.921 725.509 386.085 722.536 391.37 717.251C396.654 711.967 399.628 704.803 399.638 697.33V668.75C399.628 661.276 396.654 654.112 391.37 648.828C386.085 643.544 378.921 640.57 371.448 640.56ZM386.138 697.33C386.128 701.221 384.576 704.949 381.823 707.698C379.069 710.448 375.339 711.994 371.448 712H321.768C317.874 711.994 314.14 710.445 311.387 707.691C308.633 704.937 307.083 701.204 307.078 697.31V668.75C307.083 664.855 308.633 661.122 311.387 658.368C314.14 655.614 317.874 654.065 321.768 654.06H371.448C375.343 654.065 379.076 655.614 381.83 658.368C384.583 661.122 386.133 664.855 386.138 668.75V697.33Z"/>
</mask>
<path d="M371.448 640.56H321.768C314.294 640.568 307.128 643.54 301.844 648.825C296.559 654.11 293.586 661.276 293.578 668.75V697.33C293.586 704.804 296.559 711.969 301.844 717.254C307.128 722.539 314.294 725.512 321.768 725.52H371.448C378.921 725.509 386.085 722.536 391.37 717.251C396.654 711.967 399.628 704.803 399.638 697.33V668.75C399.628 661.276 396.654 654.112 391.37 648.828C386.085 643.544 378.921 640.57 371.448 640.56ZM386.138 697.33C386.128 701.221 384.576 704.949 381.823 707.698C379.069 710.448 375.339 711.994 371.448 712H321.768C317.874 711.994 314.14 710.445 311.387 707.691C308.633 704.937 307.083 701.204 307.078 697.31V668.75C307.083 664.855 308.633 661.122 311.387 658.368C314.14 655.614 317.874 654.065 321.768 654.06H371.448C375.343 654.065 379.076 655.614 381.83 658.368C384.583 661.122 386.133 664.855 386.138 668.75V697.33Z" fill="white"/>
<path d="M371.448 640.56H321.768C314.294 640.568 307.128 643.54 301.844 648.825C296.559 654.11 293.586 661.276 293.578 668.75V697.33C293.586 704.804 296.559 711.969 301.844 717.254C307.128 722.539 314.294 725.512 321.768 725.52H371.448C378.921 725.509 386.085 722.536 391.37 717.251C396.654 711.967 399.628 704.803 399.638 697.33V668.75C399.628 661.276 396.654 654.112 391.37 648.828C386.085 643.544 378.921 640.57 371.448 640.56ZM386.138 697.33C386.128 701.221 384.576 704.949 381.823 707.698C379.069 710.448 375.339 711.994 371.448 712H321.768C317.874 711.994 314.14 710.445 311.387 707.691C308.633 704.937 307.083 701.204 307.078 697.31V668.75C307.083 664.855 308.633 661.122 311.387 658.368C314.14 655.614 317.874 654.065 321.768 654.06H371.448C375.343 654.065 379.076 655.614 381.83 658.368C384.583 661.122 386.133 664.855 386.138 668.75V697.33Z" stroke="white" stroke-width="10" mask="url(#path-14-outside-14_289_99)"/>
<mask id="path-15-outside-15_289_99" maskUnits="userSpaceOnUse" x="452.688" y="635.56" width="117" height="95" fill="black">
<rect fill="white" x="452.688" y="635.56" width="117" height="95"/>
<path d="M535.557 640.56H485.878C478.404 640.57 471.24 643.544 465.956 648.828C460.671 654.112 457.698 661.276 457.688 668.75V697.33C457.698 704.803 460.671 711.967 465.956 717.251C471.24 722.536 478.404 725.509 485.878 725.52H535.557C543.032 725.512 550.197 722.539 555.482 717.254C560.767 711.969 563.74 704.804 563.747 697.33V668.75C563.74 661.276 560.767 654.11 555.482 648.825C550.197 643.54 543.032 640.568 535.557 640.56ZM550.247 697.33C550.237 701.221 548.685 704.949 545.932 707.698C543.179 710.448 539.448 711.994 535.557 712H485.878C481.983 711.994 478.25 710.445 475.496 707.691C472.742 704.937 471.193 701.204 471.188 697.31V668.75C471.193 664.855 472.742 661.122 475.496 658.368C478.25 655.614 481.983 654.065 485.878 654.06H535.557C539.452 654.065 543.185 655.614 545.939 658.368C548.693 661.122 550.242 664.855 550.247 668.75V697.33Z"/>
</mask>
<path d="M535.557 640.56H485.878C478.404 640.57 471.24 643.544 465.956 648.828C460.671 654.112 457.698 661.276 457.688 668.75V697.33C457.698 704.803 460.671 711.967 465.956 717.251C471.24 722.536 478.404 725.509 485.878 725.52H535.557C543.032 725.512 550.197 722.539 555.482 717.254C560.767 711.969 563.74 704.804 563.747 697.33V668.75C563.74 661.276 560.767 654.11 555.482 648.825C550.197 643.54 543.032 640.568 535.557 640.56ZM550.247 697.33C550.237 701.221 548.685 704.949 545.932 707.698C543.179 710.448 539.448 711.994 535.557 712H485.878C481.983 711.994 478.25 710.445 475.496 707.691C472.742 704.937 471.193 701.204 471.188 697.31V668.75C471.193 664.855 472.742 661.122 475.496 658.368C478.25 655.614 481.983 654.065 485.878 654.06H535.557C539.452 654.065 543.185 655.614 545.939 658.368C548.693 661.122 550.242 664.855 550.247 668.75V697.33Z" fill="white"/>
<path d="M535.557 640.56H485.878C478.404 640.57 471.24 643.544 465.956 648.828C460.671 654.112 457.698 661.276 457.688 668.75V697.33C457.698 704.803 460.671 711.967 465.956 717.251C471.24 722.536 478.404 725.509 485.878 725.52H535.557C543.032 725.512 550.197 722.539 555.482 717.254C560.767 711.969 563.74 704.804 563.747 697.33V668.75C563.74 661.276 560.767 654.11 555.482 648.825C550.197 643.54 543.032 640.568 535.557 640.56ZM550.247 697.33C550.237 701.221 548.685 704.949 545.932 707.698C543.179 710.448 539.448 711.994 535.557 712H485.878C481.983 711.994 478.25 710.445 475.496 707.691C472.742 704.937 471.193 701.204 471.188 697.31V668.75C471.193 664.855 472.742 661.122 475.496 658.368C478.25 655.614 481.983 654.065 485.878 654.06H535.557C539.452 654.065 543.185 655.614 545.939 658.368C548.693 661.122 550.242 664.855 550.247 668.75V697.33Z" stroke="white" stroke-width="10" mask="url(#path-15-outside-15_289_99)"/>
<mask id="path-16-outside-16_289_99" maskUnits="userSpaceOnUse" x="288.578" y="763" width="117" height="95" fill="black">
<rect fill="white" x="288.578" y="763" width="117" height="95"/>
<path d="M371.448 768H321.768C314.294 768.008 307.128 770.981 301.844 776.265C296.559 781.55 293.586 788.716 293.578 796.19V824.77C293.586 832.244 296.559 839.41 301.844 844.695C307.128 849.98 314.294 852.952 321.768 852.96H371.448C378.921 852.949 386.085 849.976 391.37 844.692C396.654 839.407 399.628 832.243 399.638 824.77V796.16C399.62 788.692 396.643 781.536 391.359 776.258C386.076 770.98 378.916 768.011 371.448 768ZM386.138 824.77C386.133 828.664 384.583 832.398 381.83 835.152C379.076 837.905 375.343 839.455 371.448 839.46H321.768C317.874 839.455 314.14 837.905 311.387 835.152C308.633 832.398 307.083 828.664 307.078 824.77V796.16C307.083 792.266 308.633 788.532 311.387 785.778C314.14 783.025 317.874 781.475 321.768 781.47H371.448C375.343 781.475 379.076 783.025 381.83 785.778C384.583 788.532 386.133 792.266 386.138 796.16V824.77Z"/>
</mask>
<path d="M371.448 768H321.768C314.294 768.008 307.128 770.981 301.844 776.265C296.559 781.55 293.586 788.716 293.578 796.19V824.77C293.586 832.244 296.559 839.41 301.844 844.695C307.128 849.98 314.294 852.952 321.768 852.96H371.448C378.921 852.949 386.085 849.976 391.37 844.692C396.654 839.407 399.628 832.243 399.638 824.77V796.16C399.62 788.692 396.643 781.536 391.359 776.258C386.076 770.98 378.916 768.011 371.448 768ZM386.138 824.77C386.133 828.664 384.583 832.398 381.83 835.152C379.076 837.905 375.343 839.455 371.448 839.46H321.768C317.874 839.455 314.14 837.905 311.387 835.152C308.633 832.398 307.083 828.664 307.078 824.77V796.16C307.083 792.266 308.633 788.532 311.387 785.778C314.14 783.025 317.874 781.475 321.768 781.47H371.448C375.343 781.475 379.076 783.025 381.83 785.778C384.583 788.532 386.133 792.266 386.138 796.16V824.77Z" fill="white"/>
<path d="M371.448 768H321.768C314.294 768.008 307.128 770.981 301.844 776.265C296.559 781.55 293.586 788.716 293.578 796.19V824.77C293.586 832.244 296.559 839.41 301.844 844.695C307.128 849.98 314.294 852.952 321.768 852.96H371.448C378.921 852.949 386.085 849.976 391.37 844.692C396.654 839.407 399.628 832.243 399.638 824.77V796.16C399.62 788.692 396.643 781.536 391.359 776.258C386.076 770.98 378.916 768.011 371.448 768ZM386.138 824.77C386.133 828.664 384.583 832.398 381.83 835.152C379.076 837.905 375.343 839.455 371.448 839.46H321.768C317.874 839.455 314.14 837.905 311.387 835.152C308.633 832.398 307.083 828.664 307.078 824.77V796.16C307.083 792.266 308.633 788.532 311.387 785.778C314.14 783.025 317.874 781.475 321.768 781.47H371.448C375.343 781.475 379.076 783.025 381.83 785.778C384.583 788.532 386.133 792.266 386.138 796.16V824.77Z" stroke="white" stroke-width="10" mask="url(#path-16-outside-16_289_99)"/>
<mask id="path-17-outside-17_289_99" maskUnits="userSpaceOnUse" x="452.688" y="763" width="117" height="95" fill="black">
<rect fill="white" x="452.688" y="763" width="117" height="95"/>
<path d="M535.557 768H485.878C478.404 768.011 471.24 770.984 465.956 776.268C460.671 781.553 457.698 788.717 457.688 796.19V824.77C457.698 832.243 460.671 839.407 465.956 844.692C471.24 849.976 478.404 852.949 485.878 852.96H535.557C543.032 852.952 550.197 849.98 555.482 844.695C560.767 839.41 563.74 832.244 563.747 824.77V796.16C563.732 788.691 560.756 781.533 555.471 776.255C550.187 770.976 543.026 768.008 535.557 768ZM550.247 824.77C550.242 828.664 548.693 832.398 545.939 835.152C543.185 837.905 539.452 839.455 535.557 839.46H485.878C481.983 839.455 478.25 837.905 475.496 835.152C472.742 832.398 471.193 828.664 471.188 824.77V796.16C471.193 792.266 472.742 788.532 475.496 785.778C478.25 783.025 481.983 781.475 485.878 781.47H535.557C539.452 781.475 543.185 783.025 545.939 785.778C548.693 788.532 550.242 792.266 550.247 796.16V824.77Z"/>
</mask>
<path d="M535.557 768H485.878C478.404 768.011 471.24 770.984 465.956 776.268C460.671 781.553 457.698 788.717 457.688 796.19V824.77C457.698 832.243 460.671 839.407 465.956 844.692C471.24 849.976 478.404 852.949 485.878 852.96H535.557C543.032 852.952 550.197 849.98 555.482 844.695C560.767 839.41 563.74 832.244 563.747 824.77V796.16C563.732 788.691 560.756 781.533 555.471 776.255C550.187 770.976 543.026 768.008 535.557 768ZM550.247 824.77C550.242 828.664 548.693 832.398 545.939 835.152C543.185 837.905 539.452 839.455 535.557 839.46H485.878C481.983 839.455 478.25 837.905 475.496 835.152C472.742 832.398 471.193 828.664 471.188 824.77V796.16C471.193 792.266 472.742 788.532 475.496 785.778C478.25 783.025 481.983 781.475 485.878 781.47H535.557C539.452 781.475 543.185 783.025 545.939 785.778C548.693 788.532 550.242 792.266 550.247 796.16V824.77Z" fill="white"/>
<path d="M535.557 768H485.878C478.404 768.011 471.24 770.984 465.956 776.268C460.671 781.553 457.698 788.717 457.688 796.19V824.77C457.698 832.243 460.671 839.407 465.956 844.692C471.24 849.976 478.404 852.949 485.878 852.96H535.557C543.032 852.952 550.197 849.98 555.482 844.695C560.767 839.41 563.74 832.244 563.747 824.77V796.16C563.732 788.691 560.756 781.533 555.471 776.255C550.187 770.976 543.026 768.008 535.557 768ZM550.247 824.77C550.242 828.664 548.693 832.398 545.939 835.152C543.185 837.905 539.452 839.455 535.557 839.46H485.878C481.983 839.455 478.25 837.905 475.496 835.152C472.742 832.398 471.193 828.664 471.188 824.77V796.16C471.193 792.266 472.742 788.532 475.496 785.778C478.25 783.025 481.983 781.475 485.878 781.47H535.557C539.452 781.475 543.185 783.025 545.939 785.778C548.693 788.532 550.242 792.266 550.247 796.16V824.77Z" stroke="white" stroke-width="10" mask="url(#path-17-outside-17_289_99)"/>
<mask id="path-18-outside-18_289_99" maskUnits="userSpaceOnUse" x="281" y="312.32" width="465" height="182" fill="black">
<rect fill="white" x="281" y="312.32" width="465" height="182"/>
<path d="M699.51 317.32H392.89C391.1 317.32 389.383 318.031 388.117 319.297C386.851 320.563 386.14 322.28 386.14 324.07C386.14 325.861 386.851 327.577 388.117 328.843C389.383 330.109 391.1 330.82 392.89 330.82H699.51C706.836 330.828 713.859 333.742 719.039 338.922C724.218 344.102 727.132 351.125 727.14 358.45V447.71C727.132 455.036 724.218 462.059 719.039 467.239C713.859 472.419 706.836 475.332 699.51 475.34H327.1C319.775 475.332 312.751 472.419 307.571 467.239C302.392 462.059 299.478 455.036 299.47 447.71V358.45C299.478 351.125 302.392 344.102 307.571 338.922C312.751 333.742 319.775 330.828 327.1 330.82C328.89 330.82 330.607 330.109 331.873 328.843C333.139 327.577 333.85 325.861 333.85 324.07C333.85 322.28 333.139 320.563 331.873 319.297C330.607 318.031 328.89 317.32 327.1 317.32C316.201 317.341 305.755 321.683 298.051 329.392C290.347 337.102 286.013 347.551 286 358.45V447.71C286.013 458.615 290.351 469.068 298.061 476.779C305.772 484.489 316.226 488.827 327.13 488.84H699.51C710.414 488.827 720.868 484.489 728.579 476.779C736.289 469.068 740.627 458.615 740.64 447.71V358.45C740.627 347.546 736.289 337.092 728.579 329.382C720.868 321.671 710.414 317.334 699.51 317.32Z"/>
</mask>
<path d="M699.51 317.32H392.89C391.1 317.32 389.383 318.031 388.117 319.297C386.851 320.563 386.14 322.28 386.14 324.07C386.14 325.861 386.851 327.577 388.117 328.843C389.383 330.109 391.1 330.82 392.89 330.82H699.51C706.836 330.828 713.859 333.742 719.039 338.922C724.218 344.102 727.132 351.125 727.14 358.45V447.71C727.132 455.036 724.218 462.059 719.039 467.239C713.859 472.419 706.836 475.332 699.51 475.34H327.1C319.775 475.332 312.751 472.419 307.571 467.239C302.392 462.059 299.478 455.036 299.47 447.71V358.45C299.478 351.125 302.392 344.102 307.571 338.922C312.751 333.742 319.775 330.828 327.1 330.82C328.89 330.82 330.607 330.109 331.873 328.843C333.139 327.577 333.85 325.861 333.85 324.07C333.85 322.28 333.139 320.563 331.873 319.297C330.607 318.031 328.89 317.32 327.1 317.32C316.201 317.341 305.755 321.683 298.051 329.392C290.347 337.102 286.013 347.551 286 358.45V447.71C286.013 458.615 290.351 469.068 298.061 476.779C305.772 484.489 316.226 488.827 327.13 488.84H699.51C710.414 488.827 720.868 484.489 728.579 476.779C736.289 469.068 740.627 458.615 740.64 447.71V358.45C740.627 347.546 736.289 337.092 728.579 329.382C720.868 321.671 710.414 317.334 699.51 317.32Z" fill="white"/>
<path d="M699.51 317.32H392.89C391.1 317.32 389.383 318.031 388.117 319.297C386.851 320.563 386.14 322.28 386.14 324.07C386.14 325.861 386.851 327.577 388.117 328.843C389.383 330.109 391.1 330.82 392.89 330.82H699.51C706.836 330.828 713.859 333.742 719.039 338.922C724.218 344.102 727.132 351.125 727.14 358.45V447.71C727.132 455.036 724.218 462.059 719.039 467.239C713.859 472.419 706.836 475.332 699.51 475.34H327.1C319.775 475.332 312.751 472.419 307.571 467.239C302.392 462.059 299.478 455.036 299.47 447.71V358.45C299.478 351.125 302.392 344.102 307.571 338.922C312.751 333.742 319.775 330.828 327.1 330.82C328.89 330.82 330.607 330.109 331.873 328.843C333.139 327.577 333.85 325.861 333.85 324.07C333.85 322.28 333.139 320.563 331.873 319.297C330.607 318.031 328.89 317.32 327.1 317.32C316.201 317.341 305.755 321.683 298.051 329.392C290.347 337.102 286.013 347.551 286 358.45V447.71C286.013 458.615 290.351 469.068 298.061 476.779C305.772 484.489 316.226 488.827 327.13 488.84H699.51C710.414 488.827 720.868 484.489 728.579 476.779C736.289 469.068 740.627 458.615 740.64 447.71V358.45C740.627 347.546 736.289 337.092 728.579 329.382C720.868 321.671 710.414 317.334 699.51 317.32Z" stroke="white" stroke-width="10" mask="url(#path-18-outside-18_289_99)"/>
<mask id="path-19-outside-19_289_99" maskUnits="userSpaceOnUse" x="590.648" y="103.76" width="26" height="26" fill="black">
<rect fill="white" x="590.648" y="103.76" width="26" height="26"/>
<path d="M603.588 108.76C602.018 108.76 600.482 109.226 599.176 110.099C597.87 110.972 596.853 112.212 596.252 113.664C595.651 115.115 595.495 116.712 595.802 118.252C596.109 119.793 596.866 121.208 597.978 122.318C599.089 123.428 600.505 124.183 602.046 124.488C603.586 124.794 605.183 124.635 606.634 124.033C608.085 123.43 609.324 122.411 610.195 121.104C611.066 119.797 611.53 118.261 611.528 116.69C611.528 115.648 611.323 114.616 610.924 113.653C610.525 112.69 609.94 111.815 609.202 111.079C608.465 110.342 607.589 109.758 606.626 109.361C605.663 108.963 604.631 108.758 603.588 108.76Z"/>
</mask>
<path d="M603.588 108.76C602.018 108.76 600.482 109.226 599.176 110.099C597.87 110.972 596.853 112.212 596.252 113.664C595.651 115.115 595.495 116.712 595.802 118.252C596.109 119.793 596.866 121.208 597.978 122.318C599.089 123.428 600.505 124.183 602.046 124.488C603.586 124.794 605.183 124.635 606.634 124.033C608.085 123.43 609.324 122.411 610.195 121.104C611.066 119.797 611.53 118.261 611.528 116.69C611.528 115.648 611.323 114.616 610.924 113.653C610.525 112.69 609.94 111.815 609.202 111.079C608.465 110.342 607.589 109.758 606.626 109.361C605.663 108.963 604.631 108.758 603.588 108.76Z" fill="white"/>
<path d="M603.588 108.76C602.018 108.76 600.482 109.226 599.176 110.099C597.87 110.972 596.853 112.212 596.252 113.664C595.651 115.115 595.495 116.712 595.802 118.252C596.109 119.793 596.866 121.208 597.978 122.318C599.089 123.428 600.505 124.183 602.046 124.488C603.586 124.794 605.183 124.635 606.634 124.033C608.085 123.43 609.324 122.411 610.195 121.104C611.066 119.797 611.53 118.261 611.528 116.69C611.528 115.648 611.323 114.616 610.924 113.653C610.525 112.69 609.94 111.815 609.202 111.079C608.465 110.342 607.589 109.758 606.626 109.361C605.663 108.963 604.631 108.758 603.588 108.76Z" stroke="white" stroke-width="10" mask="url(#path-19-outside-19_289_99)"/>
<mask id="path-20-outside-20_289_99" maskUnits="userSpaceOnUse" x="574.781" y="87.8799" width="26" height="26" fill="black">
<rect fill="white" x="574.781" y="87.8799" width="26" height="26"/>
<path d="M587.721 108.76C592.106 108.76 595.661 105.205 595.661 100.82C595.661 96.4347 592.106 92.8799 587.721 92.8799C583.336 92.8799 579.781 96.4347 579.781 100.82C579.781 105.205 583.336 108.76 587.721 108.76Z"/>
</mask>
<path d="M587.721 108.76C592.106 108.76 595.661 105.205 595.661 100.82C595.661 96.4347 592.106 92.8799 587.721 92.8799C583.336 92.8799 579.781 96.4347 579.781 100.82C579.781 105.205 583.336 108.76 587.721 108.76Z" fill="white"/>
<path d="M587.721 108.76C592.106 108.76 595.661 105.205 595.661 100.82C595.661 96.4347 592.106 92.8799 587.721 92.8799C583.336 92.8799 579.781 96.4347 579.781 100.82C579.781 105.205 583.336 108.76 587.721 108.76Z" stroke="white" stroke-width="10" mask="url(#path-20-outside-20_289_99)"/>
<mask id="path-21-outside-21_289_99" maskUnits="userSpaceOnUse" x="879.156" y="609.218" width="27" height="27" fill="black">
<rect fill="white" x="879.156" y="609.218" width="27" height="27"/>
<path d="M898.136 628.2C899.282 627.055 900.062 625.596 900.379 624.007C900.695 622.418 900.533 620.771 899.913 619.274C899.293 617.778 898.244 616.498 896.897 615.598C895.55 614.698 893.966 614.218 892.346 614.218C890.726 614.218 889.143 614.698 887.796 615.598C886.449 616.498 885.399 617.778 884.779 619.274C884.16 620.771 883.998 622.418 884.314 624.007C884.63 625.596 885.411 627.055 886.556 628.2C888.093 629.733 890.176 630.594 892.346 630.594C894.517 630.594 896.599 629.733 898.136 628.2Z"/>
</mask>
<path d="M898.136 628.2C899.282 627.055 900.062 625.596 900.379 624.007C900.695 622.418 900.533 620.771 899.913 619.274C899.293 617.778 898.244 616.498 896.897 615.598C895.55 614.698 893.966 614.218 892.346 614.218C890.726 614.218 889.143 614.698 887.796 615.598C886.449 616.498 885.399 617.778 884.779 619.274C884.16 620.771 883.998 622.418 884.314 624.007C884.63 625.596 885.411 627.055 886.556 628.2C888.093 629.733 890.176 630.594 892.346 630.594C894.517 630.594 896.599 629.733 898.136 628.2Z" fill="white"/>
<path d="M898.136 628.2C899.282 627.055 900.062 625.596 900.379 624.007C900.695 622.418 900.533 620.771 899.913 619.274C899.293 617.778 898.244 616.498 896.897 615.598C895.55 614.698 893.966 614.218 892.346 614.218C890.726 614.218 889.143 614.698 887.796 615.598C886.449 616.498 885.399 617.778 884.779 619.274C884.16 620.771 883.998 622.418 884.314 624.007C884.63 625.596 885.411 627.055 886.556 628.2C888.093 629.733 890.176 630.594 892.346 630.594C894.517 630.594 896.599 629.733 898.136 628.2Z" stroke="white" stroke-width="10" mask="url(#path-21-outside-21_289_99)"/>
<mask id="path-22-outside-22_289_99" maskUnits="userSpaceOnUse" x="622.633" y="635.56" width="117" height="223" fill="black">
<rect fill="white" x="622.633" y="635.56" width="117" height="223"/>
<path d="M691.153 640.56H670.153C658.88 640.573 648.072 645.057 640.101 653.028C632.13 660.999 627.646 671.807 627.633 683.08C627.633 684.87 628.344 686.587 629.61 687.853C630.876 689.118 632.593 689.83 634.383 689.83C636.173 689.83 637.89 689.118 639.156 687.853C640.422 686.587 641.133 684.87 641.133 683.08C641.149 675.393 644.209 668.026 649.644 662.591C655.079 657.156 662.446 654.095 670.133 654.08H691.133C698.824 654.08 706.2 657.135 711.639 662.573C717.077 668.012 720.133 675.388 720.133 683.08V810.41C720.133 818.101 717.077 825.477 711.639 830.916C706.2 836.354 698.824 839.41 691.133 839.41H670.133C662.446 839.394 655.079 836.333 649.644 830.898C644.209 825.463 641.149 818.096 641.133 810.41V746.74C641.133 744.949 640.422 743.232 639.156 741.967C637.89 740.701 636.173 739.99 634.383 739.99C632.593 739.99 630.876 740.701 629.61 741.967C628.344 743.232 627.633 744.949 627.633 746.74V810.41C627.649 821.682 632.134 832.488 640.104 840.458C648.075 848.429 658.881 852.914 670.153 852.93H691.153C702.424 852.914 713.229 848.428 721.198 840.458C729.167 832.487 733.65 821.681 733.663 810.41V683.08C733.652 671.808 729.17 661 721.201 653.029C713.231 645.057 702.425 640.573 691.153 640.56Z"/>
</mask>
<path d="M691.153 640.56H670.153C658.88 640.573 648.072 645.057 640.101 653.028C632.13 660.999 627.646 671.807 627.633 683.08C627.633 684.87 628.344 686.587 629.61 687.853C630.876 689.118 632.593 689.83 634.383 689.83C636.173 689.83 637.89 689.118 639.156 687.853C640.422 686.587 641.133 684.87 641.133 683.08C641.149 675.393 644.209 668.026 649.644 662.591C655.079 657.156 662.446 654.095 670.133 654.08H691.133C698.824 654.08 706.2 657.135 711.639 662.573C717.077 668.012 720.133 675.388 720.133 683.08V810.41C720.133 818.101 717.077 825.477 711.639 830.916C706.2 836.354 698.824 839.41 691.133 839.41H670.133C662.446 839.394 655.079 836.333 649.644 830.898C644.209 825.463 641.149 818.096 641.133 810.41V746.74C641.133 744.949 640.422 743.232 639.156 741.967C637.89 740.701 636.173 739.99 634.383 739.99C632.593 739.99 630.876 740.701 629.61 741.967C628.344 743.232 627.633 744.949 627.633 746.74V810.41C627.649 821.682 632.134 832.488 640.104 840.458C648.075 848.429 658.881 852.914 670.153 852.93H691.153C702.424 852.914 713.229 848.428 721.198 840.458C729.167 832.487 733.65 821.681 733.663 810.41V683.08C733.652 671.808 729.17 661 721.201 653.029C713.231 645.057 702.425 640.573 691.153 640.56Z" fill="white"/>
<path d="M691.153 640.56H670.153C658.88 640.573 648.072 645.057 640.101 653.028C632.13 660.999 627.646 671.807 627.633 683.08C627.633 684.87 628.344 686.587 629.61 687.853C630.876 689.118 632.593 689.83 634.383 689.83C636.173 689.83 637.89 689.118 639.156 687.853C640.422 686.587 641.133 684.87 641.133 683.08C641.149 675.393 644.209 668.026 649.644 662.591C655.079 657.156 662.446 654.095 670.133 654.08H691.133C698.824 654.08 706.2 657.135 711.639 662.573C717.077 668.012 720.133 675.388 720.133 683.08V810.41C720.133 818.101 717.077 825.477 711.639 830.916C706.2 836.354 698.824 839.41 691.133 839.41H670.133C662.446 839.394 655.079 836.333 649.644 830.898C644.209 825.463 641.149 818.096 641.133 810.41V746.74C641.133 744.949 640.422 743.232 639.156 741.967C637.89 740.701 636.173 739.99 634.383 739.99C632.593 739.99 630.876 740.701 629.61 741.967C628.344 743.232 627.633 744.949 627.633 746.74V810.41C627.649 821.682 632.134 832.488 640.104 840.458C648.075 848.429 658.881 852.914 670.153 852.93H691.153C702.424 852.914 713.229 848.428 721.198 840.458C729.167 832.487 733.65 821.681 733.663 810.41V683.08C733.652 671.808 729.17 661 721.201 653.029C713.231 645.057 702.425 640.573 691.153 640.56Z" stroke="white" stroke-width="10" mask="url(#path-22-outside-22_289_99)"/>
<mask id="path-23-outside-23_289_99" maskUnits="userSpaceOnUse" x="622.602" y="695.04" width="24" height="40" fill="black">
<rect fill="white" x="622.602" y="695.04" width="24" height="40"/>
<path d="M634.352 729.31C636.142 729.31 637.859 728.599 639.125 727.333C640.39 726.067 641.102 724.35 641.102 722.56V706.79C641.102 705 640.39 703.283 639.125 702.017C637.859 700.751 636.142 700.04 634.352 700.04C632.561 700.04 630.844 700.751 629.579 702.017C628.313 703.283 627.602 705 627.602 706.79V722.56C627.602 724.35 628.313 726.067 629.579 727.333C630.844 728.599 632.561 729.31 634.352 729.31Z"/>
</mask>
<path d="M634.352 729.31C636.142 729.31 637.859 728.599 639.125 727.333C640.39 726.067 641.102 724.35 641.102 722.56V706.79C641.102 705 640.39 703.283 639.125 702.017C637.859 700.751 636.142 700.04 634.352 700.04C632.561 700.04 630.844 700.751 629.579 702.017C628.313 703.283 627.602 705 627.602 706.79V722.56C627.602 724.35 628.313 726.067 629.579 727.333C630.844 728.599 632.561 729.31 634.352 729.31Z" fill="white"/>
<path d="M634.352 729.31C636.142 729.31 637.859 728.599 639.125 727.333C640.39 726.067 641.102 724.35 641.102 722.56V706.79C641.102 705 640.39 703.283 639.125 702.017C637.859 700.751 636.142 700.04 634.352 700.04C632.561 700.04 630.844 700.751 629.579 702.017C628.313 703.283 627.602 705 627.602 706.79V722.56C627.602 724.35 628.313 726.067 629.579 727.333C630.844 728.599 632.561 729.31 634.352 729.31Z" stroke="white" stroke-width="10" mask="url(#path-23-outside-23_289_99)"/>
<mask id="path-24-outside-24_289_99" maskUnits="userSpaceOnUse" x="340.391" y="312.32" width="40" height="24" fill="black">
<rect fill="white" x="340.391" y="312.32" width="40" height="24"/>
<path d="M352.141 330.82H368.501C370.291 330.82 372.008 330.109 373.274 328.843C374.539 327.577 375.251 325.861 375.251 324.07C375.251 322.28 374.539 320.563 373.274 319.297C372.008 318.031 370.291 317.32 368.501 317.32H352.141C350.35 317.32 348.634 318.031 347.368 319.297C346.102 320.563 345.391 322.28 345.391 324.07C345.391 325.861 346.102 327.577 347.368 328.843C348.634 330.109 350.35 330.82 352.141 330.82Z"/>
</mask>
<path d="M352.141 330.82H368.501C370.291 330.82 372.008 330.109 373.274 328.843C374.539 327.577 375.251 325.861 375.251 324.07C375.251 322.28 374.539 320.563 373.274 319.297C372.008 318.031 370.291 317.32 368.501 317.32H352.141C350.35 317.32 348.634 318.031 347.368 319.297C346.102 320.563 345.391 322.28 345.391 324.07C345.391 325.861 346.102 327.577 347.368 328.843C348.634 330.109 350.35 330.82 352.141 330.82Z" fill="white"/>
<path d="M352.141 330.82H368.501C370.291 330.82 372.008 330.109 373.274 328.843C374.539 327.577 375.251 325.861 375.251 324.07C375.251 322.28 374.539 320.563 373.274 319.297C372.008 318.031 370.291 317.32 368.501 317.32H352.141C350.35 317.32 348.634 318.031 347.368 319.297C346.102 320.563 345.391 322.28 345.391 324.07C345.391 325.861 346.102 327.577 347.368 328.843C348.634 330.109 350.35 330.82 352.141 330.82Z" stroke="white" stroke-width="10" mask="url(#path-24-outside-24_289_99)"/>
<mask id="path-25-outside-25_289_99" maskUnits="userSpaceOnUse" x="495.609" y="579.605" width="39" height="24" fill="black">
<rect fill="white" x="495.609" y="579.605" width="39" height="24"/>
<path d="M522.299 598.1C523.207 598.135 524.112 597.987 524.961 597.664C525.81 597.34 526.585 596.849 527.239 596.219C527.894 595.59 528.414 594.834 528.77 593.998C529.126 593.163 529.309 592.264 529.309 591.355C529.309 590.447 529.126 589.548 528.77 588.712C528.414 587.877 527.894 587.121 527.239 586.492C526.585 585.862 525.81 585.371 524.961 585.047C524.112 584.724 523.207 584.576 522.299 584.61H507.619C506.712 584.576 505.806 584.724 504.957 585.047C504.109 585.371 503.334 585.862 502.679 586.492C502.025 587.121 501.504 587.877 501.148 588.712C500.793 589.548 500.609 590.447 500.609 591.355C500.609 592.264 500.793 593.163 501.148 593.998C501.504 594.834 502.025 595.59 502.679 596.219C503.334 596.849 504.109 597.34 504.957 597.664C505.806 597.987 506.712 598.135 507.619 598.1H522.299Z"/>
</mask>
<path d="M522.299 598.1C523.207 598.135 524.112 597.987 524.961 597.664C525.81 597.34 526.585 596.849 527.239 596.219C527.894 595.59 528.414 594.834 528.77 593.998C529.126 593.163 529.309 592.264 529.309 591.355C529.309 590.447 529.126 589.548 528.77 588.712C528.414 587.877 527.894 587.121 527.239 586.492C526.585 585.862 525.81 585.371 524.961 585.047C524.112 584.724 523.207 584.576 522.299 584.61H507.619C506.712 584.576 505.806 584.724 504.957 585.047C504.109 585.371 503.334 585.862 502.679 586.492C502.025 587.121 501.504 587.877 501.148 588.712C500.793 589.548 500.609 590.447 500.609 591.355C500.609 592.264 500.793 593.163 501.148 593.998C501.504 594.834 502.025 595.59 502.679 596.219C503.334 596.849 504.109 597.34 504.957 597.664C505.806 597.987 506.712 598.135 507.619 598.1H522.299Z" fill="white"/>
<path d="M522.299 598.1C523.207 598.135 524.112 597.987 524.961 597.664C525.81 597.34 526.585 596.849 527.239 596.219C527.894 595.59 528.414 594.834 528.77 593.998C529.126 593.163 529.309 592.264 529.309 591.355C529.309 590.447 529.126 589.548 528.77 588.712C528.414 587.877 527.894 587.121 527.239 586.492C526.585 585.862 525.81 585.371 524.961 585.047C524.112 584.724 523.207 584.576 522.299 584.61H507.619C506.712 584.576 505.806 584.724 504.957 585.047C504.109 585.371 503.334 585.862 502.679 586.492C502.025 587.121 501.504 587.877 501.148 588.712C500.793 589.548 500.609 590.447 500.609 591.355C500.609 592.264 500.793 593.163 501.148 593.998C501.504 594.834 502.025 595.59 502.679 596.219C503.334 596.849 504.109 597.34 504.957 597.664C505.806 597.987 506.712 598.135 507.619 598.1H522.299Z" stroke="white" stroke-width="10" mask="url(#path-25-outside-25_289_99)"/>
<mask id="path-26-outside-26_289_99" maskUnits="userSpaceOnUse" x="-5" y="-5" width="1011" height="956" fill="black">
<rect fill="white" x="-5" y="-5" width="1011" height="956"/>
<path d="M836.06 478.33H868.89C881.532 478.314 893.652 473.284 902.591 464.344C911.529 455.403 916.557 443.282 916.57 430.64V386C945.268 373.347 968.881 351.415 983.615 323.727C998.348 296.039 1003.35 264.203 997.81 233.331C992.272 202.46 976.518 174.346 953.08 153.506C929.641 132.666 899.877 120.309 868.57 118.42L867.26 118.35C858.955 117.965 850.894 115.426 843.868 110.981C836.843 106.536 831.095 100.339 827.19 93C812.156 64.8874 789.768 41.3864 762.417 25.0067C735.066 8.62693 703.78 -0.0163004 671.9 2.30785e-05C627.24 2.30785e-05 579.22 22.86 542.49 61.38C523.296 53.6323 502.789 49.6564 482.09 49.67C413.82 49.67 355.3 92 331.27 151.79C314.284 141.778 294.927 136.498 275.21 136.5C254.26 136.47 233.728 142.358 215.978 153.486C198.229 164.614 183.983 180.529 174.882 199.398C165.781 218.268 162.195 239.324 164.537 260.143C166.879 280.961 175.054 300.694 188.12 317.07C137.55 329.92 97 370.66 86 423.4C36.87 431.26 0 474.45 0 524.4C0.0586506 549.152 9.07067 573.048 25.3722 591.674C41.6736 610.301 64.1637 622.401 88.69 625.74C88.9649 625.78 89.2422 625.8 89.52 625.8H101.17C105.415 631.627 110.178 637.059 115.4 642.03L115.83 683.7C115.846 696.341 120.874 708.459 129.813 717.397C138.751 726.336 150.869 731.364 163.51 731.38H196.35C196.696 731.377 197.04 731.443 197.36 731.573C197.681 731.704 197.973 731.896 198.219 732.14C198.465 732.383 198.661 732.673 198.795 732.992C198.929 733.311 198.999 733.654 199 734V778.7C199 801.34 210.95 818.88 232 827.5V842.58C232 843.06 232.06 843.52 232.07 844V869C232.07 910.26 267.67 945.11 309.8 945.11H711.69C754.58 945.11 789.47 911.72 789.47 870.67V842.94C789.47 842.83 789.47 842.72 789.47 842.61V811.69C816.36 805.64 833.47 786.14 833.47 759.37V709.37L871.72 709.49H871.9C898.79 709.49 923.61 691.13 933.72 663.76C943.93 636.12 937.14 605.88 916.43 586.76C901.68 573.12 881.94 567.49 861.43 570.89C856.294 554.506 846.579 539.932 833.43 528.89V480.94C833.431 480.596 833.5 480.256 833.633 479.938C833.766 479.621 833.96 479.333 834.204 479.09C834.449 478.848 834.738 478.656 835.057 478.526C835.375 478.395 835.716 478.329 836.06 478.33ZM232 812.57C222.52 807.27 212.5 797.29 212.5 778.73V734C212.497 729.728 210.799 725.632 207.779 722.611C204.758 719.591 200.662 717.893 196.39 717.89H163.51C154.436 717.874 145.739 714.257 139.33 707.833C132.922 701.409 129.325 692.704 129.33 683.63L129.02 653.63C137.079 659.307 145.813 663.959 155.02 667.48L155.07 668.92C155.078 675.076 157.527 680.977 161.88 685.33C166.233 689.683 172.134 692.132 178.29 692.14H205.71C206.302 692.131 206.891 692.043 207.46 691.88H221.83C223.554 691.88 225.207 691.195 226.426 689.976C227.645 688.757 228.33 687.104 228.33 685.38C228.33 683.656 227.645 682.003 226.426 680.784C225.207 679.565 223.554 678.88 221.83 678.88H212.45V675.41H232V812.57ZM168.85 671C178.791 673.002 188.87 674.246 199 674.72V678.67H178.3C176.086 678.662 173.941 677.897 172.222 676.502C170.503 675.106 169.313 673.165 168.85 671ZM232 330.65V662H206C185.72 661.43 172 658.67 164 656.47C163.91 656.47 163.84 656.37 163.75 656.34C150.009 651.699 137.373 644.274 126.63 634.53C126.245 634.201 125.822 633.919 125.37 633.69C119.55 628.282 114.348 622.245 109.86 615.69C109.267 614.823 108.472 614.112 107.543 613.619C106.615 613.126 105.581 612.866 104.53 612.86H89.96C68.6312 609.847 49.1039 599.245 34.9604 582.999C20.8169 566.752 13.0058 545.95 12.96 524.41C12.96 480.46 45.7 442.48 89.12 436.07C90.3304 435.89 91.5028 435.512 92.59 434.95C102.441 434.655 112.273 435.986 121.69 438.89C122.271 439.095 122.887 439.181 123.502 439.142C124.117 439.104 124.717 438.942 125.268 438.666C125.819 438.389 126.308 438.005 126.707 437.535C127.105 437.066 127.405 436.521 127.588 435.932C127.771 435.344 127.834 434.725 127.772 434.112C127.71 433.499 127.526 432.905 127.229 432.365C126.932 431.825 126.529 431.351 126.045 430.97C125.561 430.59 125.005 430.311 124.41 430.15C116.108 427.586 107.504 426.126 98.82 425.81C104.635 398.527 119.314 373.936 140.568 355.869C161.822 337.802 188.457 327.275 216.32 325.93C218.27 325.84 220.23 325.79 222.19 325.79C225.52 325.79 228.86 325.93 232.19 326.19C232.1 327.65 232 329.13 232 330.65ZM222.24 312.79C215.901 312.791 209.569 313.229 203.29 314.1C187.255 296.722 178.061 274.121 177.413 250.485C176.764 226.848 184.705 203.777 199.764 185.546C214.822 167.315 235.978 155.16 259.312 151.333C282.646 147.506 306.576 152.265 326.67 164.73C317.906 193.365 317.265 223.872 324.82 252.85H309.76C292.152 252.884 275.075 258.884 261.316 269.871C247.557 280.859 237.928 296.186 234 313.35C230.06 313 226.13 312.79 222.2 312.79H222.24ZM711.69 906.91H309.76C292.712 906.891 276.368 900.111 264.314 888.057C252.259 876.002 245.479 859.658 245.46 842.61V330.61C245.479 313.562 252.259 297.218 264.314 285.164C276.368 273.109 292.712 266.329 309.76 266.31H331.4C332.362 266.785 333.417 267.045 334.49 267.07H711.69C728.536 267.089 744.687 273.789 756.599 285.701C768.511 297.613 775.211 313.764 775.23 330.61V389.09C775.129 389.55 775.079 390.019 775.08 390.49L776 842.61C775.979 859.659 769.196 876.003 757.14 888.057C745.084 900.111 728.739 906.891 711.69 906.91ZM711.69 252.09H340.07C336.43 239.096 334.589 225.664 334.6 212.17C334.6 130.85 400.76 64.69 482.09 64.69C502.368 64.6644 522.429 68.8565 541 77C541.442 77.1901 541.9 77.3374 542.37 77.44L542.8 77.54C544.09 77.8348 545.435 77.7838 546.7 77.3922C547.964 77.0007 549.102 76.2824 550 75.31C584.38 37.55 629.94 15 671.9 15C701.072 14.9785 729.703 22.8837 754.731 37.8708C779.759 52.8579 800.245 74.3636 814 100.09C818.56 108.619 825.015 115.988 832.87 121.63C819.548 124.166 806.693 128.725 794.75 135.15C793.479 136.008 792.572 137.308 792.204 138.797C791.837 140.286 792.035 141.859 792.761 143.21C793.487 144.561 794.689 145.595 796.134 146.11C797.578 146.626 799.163 146.586 800.58 146C814.435 138.542 829.612 133.858 845.26 132.21C848.407 131.877 851.557 131.667 854.71 131.58C858.602 132.515 862.572 133.091 866.57 133.3L867.69 133.36C898.011 135.208 926.618 148.045 948.155 169.468C969.692 190.891 982.681 219.43 984.69 249.74C986.903 282.521 976.104 314.853 954.633 339.723C933.163 364.593 902.753 379.996 870 382.59C864.149 383.076 858.27 383.133 852.41 382.76H790.24V330.66C790.221 309.831 781.94 289.86 767.214 275.13C752.488 260.4 732.519 252.114 711.69 252.09ZM863.83 398V415.91C863.827 418.487 862.802 420.958 860.98 422.78C859.158 424.602 856.687 425.627 854.11 425.63H833.44V397.76H851.73C854.49 397.92 857.26 398.03 860.07 398.03C861.27 398 862.55 398 863.83 398ZM820 759.37C820 781.37 805.92 793 789.54 797.68V709.49L820 709.58V759.37ZM847.38 569.91C835.658 564.954 822.894 562.966 810.22 564.12C808.624 564.403 807.193 565.273 806.206 566.559C805.219 567.845 804.749 569.453 804.889 571.067C805.028 572.682 805.766 574.186 806.958 575.284C808.15 576.382 809.709 576.994 811.33 577C823.088 575.919 834.917 578.092 845.522 583.283C856.127 588.474 865.101 596.481 871.46 606.43C871.903 607.182 872.493 607.836 873.195 608.355C873.898 608.873 874.697 609.244 875.546 609.447C876.395 609.649 877.276 609.678 878.136 609.532C878.996 609.386 879.818 609.068 880.553 608.597C881.288 608.126 881.92 607.512 882.412 606.791C882.903 606.071 883.245 605.258 883.415 604.402C883.586 603.546 883.582 602.665 883.404 601.811C883.226 600.956 882.878 600.147 882.38 599.43C878.496 593.353 873.784 587.847 868.38 583.07C883.16 581.79 896.86 586.24 907.63 596.19C924.47 611.78 929.94 636.51 921.56 659.19C913.45 681.19 893.04 696.45 871.88 696.45H871.75L828.51 696.32C827.934 696.157 827.339 696.069 826.74 696.06L789.49 696V522.15C801.545 524.365 812.887 529.46 822.55 537C822.945 537.282 823.367 537.523 823.81 537.72C834.336 546.203 842.446 557.304 847.33 569.91H847.38ZM820 480.91V519.03C810.569 513.696 800.249 510.118 789.54 508.47V397.76H820V425.85H805C803.276 425.85 801.623 426.535 800.404 427.754C799.185 428.973 798.5 430.626 798.5 432.35C798.5 434.074 799.185 435.727 800.404 436.946C801.623 438.165 803.276 438.85 805 438.85H825C825.573 439.013 826.164 439.101 826.76 439.11H854.18C860.336 439.102 866.237 436.653 870.59 432.3C874.943 427.947 877.392 422.046 877.4 415.89V396.89C886.141 395.843 894.763 393.967 903.15 391.29V430.7C903.139 439.765 899.534 448.455 893.124 454.864C886.715 461.274 878.025 464.879 868.96 464.89H836.06C831.808 464.908 827.735 466.605 824.728 469.611C821.72 472.616 820.021 476.688 820 480.94V480.91Z"/>
</mask>
<path d="M836.06 478.33H868.89C881.532 478.314 893.652 473.284 902.591 464.344C911.529 455.403 916.557 443.282 916.57 430.64V386C945.268 373.347 968.881 351.415 983.615 323.727C998.348 296.039 1003.35 264.203 997.81 233.331C992.272 202.46 976.518 174.346 953.08 153.506C929.641 132.666 899.877 120.309 868.57 118.42L867.26 118.35C858.955 117.965 850.894 115.426 843.868 110.981C836.843 106.536 831.095 100.339 827.19 93C812.156 64.8874 789.768 41.3864 762.417 25.0067C735.066 8.62693 703.78 -0.0163004 671.9 2.30785e-05C627.24 2.30785e-05 579.22 22.86 542.49 61.38C523.296 53.6323 502.789 49.6564 482.09 49.67C413.82 49.67 355.3 92 331.27 151.79C314.284 141.778 294.927 136.498 275.21 136.5C254.26 136.47 233.728 142.358 215.978 153.486C198.229 164.614 183.983 180.529 174.882 199.398C165.781 218.268 162.195 239.324 164.537 260.143C166.879 280.961 175.054 300.694 188.12 317.07C137.55 329.92 97 370.66 86 423.4C36.87 431.26 0 474.45 0 524.4C0.0586506 549.152 9.07067 573.048 25.3722 591.674C41.6736 610.301 64.1637 622.401 88.69 625.74C88.9649 625.78 89.2422 625.8 89.52 625.8H101.17C105.415 631.627 110.178 637.059 115.4 642.03L115.83 683.7C115.846 696.341 120.874 708.459 129.813 717.397C138.751 726.336 150.869 731.364 163.51 731.38H196.35C196.696 731.377 197.04 731.443 197.36 731.573C197.681 731.704 197.973 731.896 198.219 732.14C198.465 732.383 198.661 732.673 198.795 732.992C198.929 733.311 198.999 733.654 199 734V778.7C199 801.34 210.95 818.88 232 827.5V842.58C232 843.06 232.06 843.52 232.07 844V869C232.07 910.26 267.67 945.11 309.8 945.11H711.69C754.58 945.11 789.47 911.72 789.47 870.67V842.94C789.47 842.83 789.47 842.72 789.47 842.61V811.69C816.36 805.64 833.47 786.14 833.47 759.37V709.37L871.72 709.49H871.9C898.79 709.49 923.61 691.13 933.72 663.76C943.93 636.12 937.14 605.88 916.43 586.76C901.68 573.12 881.94 567.49 861.43 570.89C856.294 554.506 846.579 539.932 833.43 528.89V480.94C833.431 480.596 833.5 480.256 833.633 479.938C833.766 479.621 833.96 479.333 834.204 479.09C834.449 478.848 834.738 478.656 835.057 478.526C835.375 478.395 835.716 478.329 836.06 478.33ZM232 812.57C222.52 807.27 212.5 797.29 212.5 778.73V734C212.497 729.728 210.799 725.632 207.779 722.611C204.758 719.591 200.662 717.893 196.39 717.89H163.51C154.436 717.874 145.739 714.257 139.33 707.833C132.922 701.409 129.325 692.704 129.33 683.63L129.02 653.63C137.079 659.307 145.813 663.959 155.02 667.48L155.07 668.92C155.078 675.076 157.527 680.977 161.88 685.33C166.233 689.683 172.134 692.132 178.29 692.14H205.71C206.302 692.131 206.891 692.043 207.46 691.88H221.83C223.554 691.88 225.207 691.195 226.426 689.976C227.645 688.757 228.33 687.104 228.33 685.38C228.33 683.656 227.645 682.003 226.426 680.784C225.207 679.565 223.554 678.88 221.83 678.88H212.45V675.41H232V812.57ZM168.85 671C178.791 673.002 188.87 674.246 199 674.72V678.67H178.3C176.086 678.662 173.941 677.897 172.222 676.502C170.503 675.106 169.313 673.165 168.85 671ZM232 330.65V662H206C185.72 661.43 172 658.67 164 656.47C163.91 656.47 163.84 656.37 163.75 656.34C150.009 651.699 137.373 644.274 126.63 634.53C126.245 634.201 125.822 633.919 125.37 633.69C119.55 628.282 114.348 622.245 109.86 615.69C109.267 614.823 108.472 614.112 107.543 613.619C106.615 613.126 105.581 612.866 104.53 612.86H89.96C68.6312 609.847 49.1039 599.245 34.9604 582.999C20.8169 566.752 13.0058 545.95 12.96 524.41C12.96 480.46 45.7 442.48 89.12 436.07C90.3304 435.89 91.5028 435.512 92.59 434.95C102.441 434.655 112.273 435.986 121.69 438.89C122.271 439.095 122.887 439.181 123.502 439.142C124.117 439.104 124.717 438.942 125.268 438.666C125.819 438.389 126.308 438.005 126.707 437.535C127.105 437.066 127.405 436.521 127.588 435.932C127.771 435.344 127.834 434.725 127.772 434.112C127.71 433.499 127.526 432.905 127.229 432.365C126.932 431.825 126.529 431.351 126.045 430.97C125.561 430.59 125.005 430.311 124.41 430.15C116.108 427.586 107.504 426.126 98.82 425.81C104.635 398.527 119.314 373.936 140.568 355.869C161.822 337.802 188.457 327.275 216.32 325.93C218.27 325.84 220.23 325.79 222.19 325.79C225.52 325.79 228.86 325.93 232.19 326.19C232.1 327.65 232 329.13 232 330.65ZM222.24 312.79C215.901 312.791 209.569 313.229 203.29 314.1C187.255 296.722 178.061 274.121 177.413 250.485C176.764 226.848 184.705 203.777 199.764 185.546C214.822 167.315 235.978 155.16 259.312 151.333C282.646 147.506 306.576 152.265 326.67 164.73C317.906 193.365 317.265 223.872 324.82 252.85H309.76C292.152 252.884 275.075 258.884 261.316 269.871C247.557 280.859 237.928 296.186 234 313.35C230.06 313 226.13 312.79 222.2 312.79H222.24ZM711.69 906.91H309.76C292.712 906.891 276.368 900.111 264.314 888.057C252.259 876.002 245.479 859.658 245.46 842.61V330.61C245.479 313.562 252.259 297.218 264.314 285.164C276.368 273.109 292.712 266.329 309.76 266.31H331.4C332.362 266.785 333.417 267.045 334.49 267.07H711.69C728.536 267.089 744.687 273.789 756.599 285.701C768.511 297.613 775.211 313.764 775.23 330.61V389.09C775.129 389.55 775.079 390.019 775.08 390.49L776 842.61C775.979 859.659 769.196 876.003 757.14 888.057C745.084 900.111 728.739 906.891 711.69 906.91ZM711.69 252.09H340.07C336.43 239.096 334.589 225.664 334.6 212.17C334.6 130.85 400.76 64.69 482.09 64.69C502.368 64.6644 522.429 68.8565 541 77C541.442 77.1901 541.9 77.3374 542.37 77.44L542.8 77.54C544.09 77.8348 545.435 77.7838 546.7 77.3922C547.964 77.0007 549.102 76.2824 550 75.31C584.38 37.55 629.94 15 671.9 15C701.072 14.9785 729.703 22.8837 754.731 37.8708C779.759 52.8579 800.245 74.3636 814 100.09C818.56 108.619 825.015 115.988 832.87 121.63C819.548 124.166 806.693 128.725 794.75 135.15C793.479 136.008 792.572 137.308 792.204 138.797C791.837 140.286 792.035 141.859 792.761 143.21C793.487 144.561 794.689 145.595 796.134 146.11C797.578 146.626 799.163 146.586 800.58 146C814.435 138.542 829.612 133.858 845.26 132.21C848.407 131.877 851.557 131.667 854.71 131.58C858.602 132.515 862.572 133.091 866.57 133.3L867.69 133.36C898.011 135.208 926.618 148.045 948.155 169.468C969.692 190.891 982.681 219.43 984.69 249.74C986.903 282.521 976.104 314.853 954.633 339.723C933.163 364.593 902.753 379.996 870 382.59C864.149 383.076 858.27 383.133 852.41 382.76H790.24V330.66C790.221 309.831 781.94 289.86 767.214 275.13C752.488 260.4 732.519 252.114 711.69 252.09ZM863.83 398V415.91C863.827 418.487 862.802 420.958 860.98 422.78C859.158 424.602 856.687 425.627 854.11 425.63H833.44V397.76H851.73C854.49 397.92 857.26 398.03 860.07 398.03C861.27 398 862.55 398 863.83 398ZM820 759.37C820 781.37 805.92 793 789.54 797.68V709.49L820 709.58V759.37ZM847.38 569.91C835.658 564.954 822.894 562.966 810.22 564.12C808.624 564.403 807.193 565.273 806.206 566.559C805.219 567.845 804.749 569.453 804.889 571.067C805.028 572.682 805.766 574.186 806.958 575.284C808.15 576.382 809.709 576.994 811.33 577C823.088 575.919 834.917 578.092 845.522 583.283C856.127 588.474 865.101 596.481 871.46 606.43C871.903 607.182 872.493 607.836 873.195 608.355C873.898 608.873 874.697 609.244 875.546 609.447C876.395 609.649 877.276 609.678 878.136 609.532C878.996 609.386 879.818 609.068 880.553 608.597C881.288 608.126 881.92 607.512 882.412 606.791C882.903 606.071 883.245 605.258 883.415 604.402C883.586 603.546 883.582 602.665 883.404 601.811C883.226 600.956 882.878 600.147 882.38 599.43C878.496 593.353 873.784 587.847 868.38 583.07C883.16 581.79 896.86 586.24 907.63 596.19C924.47 611.78 929.94 636.51 921.56 659.19C913.45 681.19 893.04 696.45 871.88 696.45H871.75L828.51 696.32C827.934 696.157 827.339 696.069 826.74 696.06L789.49 696V522.15C801.545 524.365 812.887 529.46 822.55 537C822.945 537.282 823.367 537.523 823.81 537.72C834.336 546.203 842.446 557.304 847.33 569.91H847.38ZM820 480.91V519.03C810.569 513.696 800.249 510.118 789.54 508.47V397.76H820V425.85H805C803.276 425.85 801.623 426.535 800.404 427.754C799.185 428.973 798.5 430.626 798.5 432.35C798.5 434.074 799.185 435.727 800.404 436.946C801.623 438.165 803.276 438.85 805 438.85H825C825.573 439.013 826.164 439.101 826.76 439.11H854.18C860.336 439.102 866.237 436.653 870.59 432.3C874.943 427.947 877.392 422.046 877.4 415.89V396.89C886.141 395.843 894.763 393.967 903.15 391.29V430.7C903.139 439.765 899.534 448.455 893.124 454.864C886.715 461.274 878.025 464.879 868.96 464.89H836.06C831.808 464.908 827.735 466.605 824.728 469.611C821.72 472.616 820.021 476.688 820 480.94V480.91Z" fill="white"/>
<path d="M836.06 478.33H868.89C881.532 478.314 893.652 473.284 902.591 464.344C911.529 455.403 916.557 443.282 916.57 430.64V386C945.268 373.347 968.881 351.415 983.615 323.727C998.348 296.039 1003.35 264.203 997.81 233.331C992.272 202.46 976.518 174.346 953.08 153.506C929.641 132.666 899.877 120.309 868.57 118.42L867.26 118.35C858.955 117.965 850.894 115.426 843.868 110.981C836.843 106.536 831.095 100.339 827.19 93C812.156 64.8874 789.768 41.3864 762.417 25.0067C735.066 8.62693 703.78 -0.0163004 671.9 2.30785e-05C627.24 2.30785e-05 579.22 22.86 542.49 61.38C523.296 53.6323 502.789 49.6564 482.09 49.67C413.82 49.67 355.3 92 331.27 151.79C314.284 141.778 294.927 136.498 275.21 136.5C254.26 136.47 233.728 142.358 215.978 153.486C198.229 164.614 183.983 180.529 174.882 199.398C165.781 218.268 162.195 239.324 164.537 260.143C166.879 280.961 175.054 300.694 188.12 317.07C137.55 329.92 97 370.66 86 423.4C36.87 431.26 0 474.45 0 524.4C0.0586506 549.152 9.07067 573.048 25.3722 591.674C41.6736 610.301 64.1637 622.401 88.69 625.74C88.9649 625.78 89.2422 625.8 89.52 625.8H101.17C105.415 631.627 110.178 637.059 115.4 642.03L115.83 683.7C115.846 696.341 120.874 708.459 129.813 717.397C138.751 726.336 150.869 731.364 163.51 731.38H196.35C196.696 731.377 197.04 731.443 197.36 731.573C197.681 731.704 197.973 731.896 198.219 732.14C198.465 732.383 198.661 732.673 198.795 732.992C198.929 733.311 198.999 733.654 199 734V778.7C199 801.34 210.95 818.88 232 827.5V842.58C232 843.06 232.06 843.52 232.07 844V869C232.07 910.26 267.67 945.11 309.8 945.11H711.69C754.58 945.11 789.47 911.72 789.47 870.67V842.94C789.47 842.83 789.47 842.72 789.47 842.61V811.69C816.36 805.64 833.47 786.14 833.47 759.37V709.37L871.72 709.49H871.9C898.79 709.49 923.61 691.13 933.72 663.76C943.93 636.12 937.14 605.88 916.43 586.76C901.68 573.12 881.94 567.49 861.43 570.89C856.294 554.506 846.579 539.932 833.43 528.89V480.94C833.431 480.596 833.5 480.256 833.633 479.938C833.766 479.621 833.96 479.333 834.204 479.09C834.449 478.848 834.738 478.656 835.057 478.526C835.375 478.395 835.716 478.329 836.06 478.33ZM232 812.57C222.52 807.27 212.5 797.29 212.5 778.73V734C212.497 729.728 210.799 725.632 207.779 722.611C204.758 719.591 200.662 717.893 196.39 717.89H163.51C154.436 717.874 145.739 714.257 139.33 707.833C132.922 701.409 129.325 692.704 129.33 683.63L129.02 653.63C137.079 659.307 145.813 663.959 155.02 667.48L155.07 668.92C155.078 675.076 157.527 680.977 161.88 685.33C166.233 689.683 172.134 692.132 178.29 692.14H205.71C206.302 692.131 206.891 692.043 207.46 691.88H221.83C223.554 691.88 225.207 691.195 226.426 689.976C227.645 688.757 228.33 687.104 228.33 685.38C228.33 683.656 227.645 682.003 226.426 680.784C225.207 679.565 223.554 678.88 221.83 678.88H212.45V675.41H232V812.57ZM168.85 671C178.791 673.002 188.87 674.246 199 674.72V678.67H178.3C176.086 678.662 173.941 677.897 172.222 676.502C170.503 675.106 169.313 673.165 168.85 671ZM232 330.65V662H206C185.72 661.43 172 658.67 164 656.47C163.91 656.47 163.84 656.37 163.75 656.34C150.009 651.699 137.373 644.274 126.63 634.53C126.245 634.201 125.822 633.919 125.37 633.69C119.55 628.282 114.348 622.245 109.86 615.69C109.267 614.823 108.472 614.112 107.543 613.619C106.615 613.126 105.581 612.866 104.53 612.86H89.96C68.6312 609.847 49.1039 599.245 34.9604 582.999C20.8169 566.752 13.0058 545.95 12.96 524.41C12.96 480.46 45.7 442.48 89.12 436.07C90.3304 435.89 91.5028 435.512 92.59 434.95C102.441 434.655 112.273 435.986 121.69 438.89C122.271 439.095 122.887 439.181 123.502 439.142C124.117 439.104 124.717 438.942 125.268 438.666C125.819 438.389 126.308 438.005 126.707 437.535C127.105 437.066 127.405 436.521 127.588 435.932C127.771 435.344 127.834 434.725 127.772 434.112C127.71 433.499 127.526 432.905 127.229 432.365C126.932 431.825 126.529 431.351 126.045 430.97C125.561 430.59 125.005 430.311 124.41 430.15C116.108 427.586 107.504 426.126 98.82 425.81C104.635 398.527 119.314 373.936 140.568 355.869C161.822 337.802 188.457 327.275 216.32 325.93C218.27 325.84 220.23 325.79 222.19 325.79C225.52 325.79 228.86 325.93 232.19 326.19C232.1 327.65 232 329.13 232 330.65ZM222.24 312.79C215.901 312.791 209.569 313.229 203.29 314.1C187.255 296.722 178.061 274.121 177.413 250.485C176.764 226.848 184.705 203.777 199.764 185.546C214.822 167.315 235.978 155.16 259.312 151.333C282.646 147.506 306.576 152.265 326.67 164.73C317.906 193.365 317.265 223.872 324.82 252.85H309.76C292.152 252.884 275.075 258.884 261.316 269.871C247.557 280.859 237.928 296.186 234 313.35C230.06 313 226.13 312.79 222.2 312.79H222.24ZM711.69 906.91H309.76C292.712 906.891 276.368 900.111 264.314 888.057C252.259 876.002 245.479 859.658 245.46 842.61V330.61C245.479 313.562 252.259 297.218 264.314 285.164C276.368 273.109 292.712 266.329 309.76 266.31H331.4C332.362 266.785 333.417 267.045 334.49 267.07H711.69C728.536 267.089 744.687 273.789 756.599 285.701C768.511 297.613 775.211 313.764 775.23 330.61V389.09C775.129 389.55 775.079 390.019 775.08 390.49L776 842.61C775.979 859.659 769.196 876.003 757.14 888.057C745.084 900.111 728.739 906.891 711.69 906.91ZM711.69 252.09H340.07C336.43 239.096 334.589 225.664 334.6 212.17C334.6 130.85 400.76 64.69 482.09 64.69C502.368 64.6644 522.429 68.8565 541 77C541.442 77.1901 541.9 77.3374 542.37 77.44L542.8 77.54C544.09 77.8348 545.435 77.7838 546.7 77.3922C547.964 77.0007 549.102 76.2824 550 75.31C584.38 37.55 629.94 15 671.9 15C701.072 14.9785 729.703 22.8837 754.731 37.8708C779.759 52.8579 800.245 74.3636 814 100.09C818.56 108.619 825.015 115.988 832.87 121.63C819.548 124.166 806.693 128.725 794.75 135.15C793.479 136.008 792.572 137.308 792.204 138.797C791.837 140.286 792.035 141.859 792.761 143.21C793.487 144.561 794.689 145.595 796.134 146.11C797.578 146.626 799.163 146.586 800.58 146C814.435 138.542 829.612 133.858 845.26 132.21C848.407 131.877 851.557 131.667 854.71 131.58C858.602 132.515 862.572 133.091 866.57 133.3L867.69 133.36C898.011 135.208 926.618 148.045 948.155 169.468C969.692 190.891 982.681 219.43 984.69 249.74C986.903 282.521 976.104 314.853 954.633 339.723C933.163 364.593 902.753 379.996 870 382.59C864.149 383.076 858.27 383.133 852.41 382.76H790.24V330.66C790.221 309.831 781.94 289.86 767.214 275.13C752.488 260.4 732.519 252.114 711.69 252.09ZM863.83 398V415.91C863.827 418.487 862.802 420.958 860.98 422.78C859.158 424.602 856.687 425.627 854.11 425.63H833.44V397.76H851.73C854.49 397.92 857.26 398.03 860.07 398.03C861.27 398 862.55 398 863.83 398ZM820 759.37C820 781.37 805.92 793 789.54 797.68V709.49L820 709.58V759.37ZM847.38 569.91C835.658 564.954 822.894 562.966 810.22 564.12C808.624 564.403 807.193 565.273 806.206 566.559C805.219 567.845 804.749 569.453 804.889 571.067C805.028 572.682 805.766 574.186 806.958 575.284C808.15 576.382 809.709 576.994 811.33 577C823.088 575.919 834.917 578.092 845.522 583.283C856.127 588.474 865.101 596.481 871.46 606.43C871.903 607.182 872.493 607.836 873.195 608.355C873.898 608.873 874.697 609.244 875.546 609.447C876.395 609.649 877.276 609.678 878.136 609.532C878.996 609.386 879.818 609.068 880.553 608.597C881.288 608.126 881.92 607.512 882.412 606.791C882.903 606.071 883.245 605.258 883.415 604.402C883.586 603.546 883.582 602.665 883.404 601.811C883.226 600.956 882.878 600.147 882.38 599.43C878.496 593.353 873.784 587.847 868.38 583.07C883.16 581.79 896.86 586.24 907.63 596.19C924.47 611.78 929.94 636.51 921.56 659.19C913.45 681.19 893.04 696.45 871.88 696.45H871.75L828.51 696.32C827.934 696.157 827.339 696.069 826.74 696.06L789.49 696V522.15C801.545 524.365 812.887 529.46 822.55 537C822.945 537.282 823.367 537.523 823.81 537.72C834.336 546.203 842.446 557.304 847.33 569.91H847.38ZM820 480.91V519.03C810.569 513.696 800.249 510.118 789.54 508.47V397.76H820V425.85H805C803.276 425.85 801.623 426.535 800.404 427.754C799.185 428.973 798.5 430.626 798.5 432.35C798.5 434.074 799.185 435.727 800.404 436.946C801.623 438.165 803.276 438.85 805 438.85H825C825.573 439.013 826.164 439.101 826.76 439.11H854.18C860.336 439.102 866.237 436.653 870.59 432.3C874.943 427.947 877.392 422.046 877.4 415.89V396.89C886.141 395.843 894.763 393.967 903.15 391.29V430.7C903.139 439.765 899.534 448.455 893.124 454.864C886.715 461.274 878.025 464.879 868.96 464.89H836.06C831.808 464.908 827.735 466.605 824.728 469.611C821.72 472.616 820.021 476.688 820 480.94V480.91Z" stroke="white" stroke-width="10" mask="url(#path-26-outside-26_289_99)"/>
</g>
<defs>
<clipPath id="clip0_289_99">
<rect width="1000" height="945.14" fill="white"/>
</clipPath>
</defs>
</svg>
